<svg id="info-circle" xmlns="http://www.w3.org/2000/svg" width="16" height="16" viewBox="0 0 16 16">
  <defs>
    <style>
      .cls-1 {
        fill: #fe4040;
        opacity: 0.8;
      }
    </style>
  </defs>
  <path id="info-circle-2" data-name="info-circle" class="cls-1" d="M10,2a8,8,0,1,0,8,8,8,8,0,0,0-8-8Zm0,14.4A6.4,6.4,0,1,1,16.4,10,6.4,6.4,0,0,1,10,16.4Zm0-6.8a.8.8,0,0,0-.8.8v2.4a.8.8,0,0,0,1.6,0V10.4A.8.8,0,0,0,10,9.6Zm0-3.2a1,1,0,1,0,1,1A1,1,0,0,0,10,6.4Z" transform="translate(-2 -2)"/>
</svg>
