<svg id="Component_20_1" data-name="Component 20 – 1" xmlns="http://www.w3.org/2000/svg" width="46" height="46" viewBox="0 0 46 46">
  <defs>
    <style>
      .cls-1 {
        fill: #fff;
      }

      .cls-2 {
        fill: #fe4040;
      }
    </style>
  </defs>
  <circle id="Ellipse_6" data-name="Ellipse 6" class="cls-1" cx="23" cy="23" r="23"/>
  <path id="search-plus" class="cls-2" d="M15,10H12V7a1,1,0,0,0-2,0v3H7a1,1,0,0,0,0,2h3v3a1,1,0,0,0,2,0V12h3a1,1,0,0,0,0-2Zm6.71,10.29L18,16.61A9,9,0,1,0,16.61,18l3.68,3.68a.994.994,0,1,0,1.42-1.39ZM11,18a7,7,0,1,1,7-7,7,7,0,0,1-7,7Z" transform="translate(11.015 12.021)"/>
</svg>
