<svg id="Component_19_1" data-name="Component 19 – 1" xmlns="http://www.w3.org/2000/svg" width="46" height="46" viewBox="0 0 46 46">
  <defs>
    <style>
      .cls-1 {
        fill: #fff;
      }

      .cls-2 {
        fill: #fe4040;
      }
    </style>
  </defs>
  <circle id="Ellipse_7" data-name="Ellipse 7" class="cls-1" cx="23" cy="23" r="23"/>
  <path id="search-minus" class="cls-2" d="M21.71,20.29,18,16.61A9,9,0,1,0,16.61,18l3.68,3.68a.994.994,0,1,0,1.42-1.39ZM11,18a7,7,0,1,1,7-7,7,7,0,0,1-7,7Zm4-8H7a1,1,0,0,0,0,2h8a1,1,0,0,0,0-2Z" transform="translate(11.015 12.021)"/>
</svg>
