<?xml version="1.0" standalone="no"?>
<!DOCTYPE svg PUBLIC "-//W3C//DTD SVG 20010904//EN"
 "http://www.w3.org/TR/2001/REC-SVG-20010904/DTD/svg10.dtd">
<svg version="1.0" xmlns="http://www.w3.org/2000/svg"
 width="500.000000pt" height="333.000000pt" viewBox="0 0 500.000000 333.000000"
 preserveAspectRatio="xMidYMid meet">

<g transform="translate(0.000000,333.000000) scale(0.100000,-0.100000)"
fill="#000000" stroke="none">
<path d="M0 1665 l0 -1665 2500 0 2500 0 0 1665 0 1665 -2500 0 -2500 0 0
-1665z m2320 860 c0 -8 -4 -15 -10 -15 -5 0 -10 7 -10 15 0 8 5 15 10 15 6 0
10 -7 10 -15z m-160 -15 c0 -5 -5 -10 -11 -10 -5 0 -7 5 -4 10 3 6 8 10 11 10
2 0 4 -4 4 -10z m47 -19 c10 -15 9 -22 -2 -31 -22 -18 -52 13 -33 34 17 20 21
20 35 -3z m28 -51 c-10 -11 -21 -17 -24 -14 -3 4 0 9 7 11 6 3 10 9 6 14 -3 5
3 9 12 9 16 0 16 -2 -1 -20z m205 10 c0 -5 -2 -10 -4 -10 -3 0 -8 5 -11 10 -3
6 -1 10 4 10 6 0 11 -4 11 -10z m780 -20 c0 -11 -4 -20 -10 -20 -5 0 -10 9
-10 20 0 11 5 20 10 20 6 0 10 -9 10 -20z m-930 -31 c0 -5 -4 -9 -10 -9 -5 0
-10 7 -10 16 0 8 5 12 10 9 6 -3 10 -10 10 -16z m60 -4 c0 -8 -4 -17 -10 -20
-6 -4 -10 5 -10 20 0 15 4 24 10 20 6 -3 10 -12 10 -20z m105 -5 c3 -5 2 -10
-4 -10 -5 0 -13 5 -16 10 -3 6 -2 10 4 10 5 0 13 -4 16 -10z m132 -22 c0 -7 3
-29 8 -48 7 -32 6 -33 -9 -20 -15 12 -19 12 -27 -1 -6 -9 -8 -1 -5 25 4 31 17
53 32 56 0 0 1 -6 1 -12z m1281 -10 c-2 -6 -10 -14 -16 -16 -7 -2 -10 2 -6 12
7 18 28 22 22 4z m-1635 -50 c-3 -18 -12 -41 -18 -51 -12 -16 -13 -16 -17 7
-3 17 -1 23 6 19 6 -4 5 0 -2 9 -16 20 -5 48 19 48 16 0 17 -5 12 -32z m87 18
c0 -11 -19 -15 -25 -6 -3 5 1 10 9 10 9 0 16 -2 16 -4z m40 -28 c0 -13 -23 -5
-28 10 -2 7 2 10 12 6 9 -3 16 -11 16 -16z m910 -4 c0 -14 -4 -23 -10 -19 -5
3 -10 15 -10 26 0 10 5 19 10 19 6 0 10 -12 10 -26z m-970 1 c0 -2 -7 -5 -15
-9 -9 -3 -15 0 -15 9 0 9 6 12 15 9 8 -4 15 -7 15 -9z m810 -1 c0 -8 -4 -12
-10 -9 -5 3 -10 10 -10 16 0 5 5 9 10 9 6 0 10 -7 10 -16z m-2095 -14 c3 -5
-1 -10 -9 -10 -8 0 -18 5 -21 10 -3 6 1 10 9 10 8 0 18 -4 21 -10z m1503 -2
c14 -14 16 -28 2 -28 -5 0 -14 9 -20 20 -12 22 -1 27 18 8z m136 -55 c6 -15 8
-15 16 -3 6 9 10 10 10 3 0 -6 -7 -18 -15 -27 -8 -8 -15 -20 -15 -27 0 -23
-17 5 -23 39 -5 23 -3 32 7 32 8 0 17 -8 20 -17z m580 -1 c-1 -7 -2 -21 -2
-33 -3 -31 -22 -12 -22 22 0 20 4 29 13 27 6 -3 12 -10 11 -16z m-1574 -2 c0
-13 -11 -13 -30 0 -12 8 -11 10 8 10 12 0 22 -4 22 -10z m735 -10 c3 -5 1 -10
-4 -10 -6 0 -11 5 -11 10 0 6 2 10 4 10 3 0 8 -4 11 -10z m-1301 -25 c24 -18
19 -25 -16 -18 -17 3 -25 10 -21 19 6 17 13 17 37 -1z m1111 -5 c3 -11 4 -24
1 -29 -11 -18 12 -58 41 -70 54 -24 88 -111 42 -111 -10 0 -19 -5 -19 -12 0
-6 -3 -8 -7 -4 -4 3 -13 -4 -20 -16 -11 -20 -12 -15 -13 45 0 49 -3 66 -12 61
-7 -5 -8 -3 -4 5 5 8 -5 24 -25 43 -19 16 -33 35 -31 41 2 8 0 9 -7 2 -5 -5
-11 -23 -14 -40 -3 -19 -4 -14 -4 16 0 25 -3 51 -7 57 -11 17 0 15 20 -5 16
-16 16 -16 10 5 -6 17 -4 21 8 16 9 -3 16 -1 16 5 0 19 18 12 25 -9z m1595 11
c0 -12 -31 -43 -37 -37 -9 9 9 46 23 46 8 0 14 -4 14 -9z m-2019 -11 c12 0 11
-12 -1 -46 -8 -21 -13 -25 -23 -15 -6 6 -12 25 -13 42 -1 23 2 29 13 25 8 -3
19 -6 24 -6z m236 -12 c-3 -8 -6 -5 -6 6 -1 11 2 17 5 13 3 -3 4 -12 1 -19z
m534 5 c0 -5 1 -33 2 -64 2 -59 19 -91 43 -82 8 3 25 -6 39 -21 l24 -26 -4 30
c-2 16 -6 34 -10 40 -4 6 -2 17 4 24 6 7 9 21 5 30 -3 9 -2 16 4 16 12 0 22
-24 22 -51 0 -12 4 -17 11 -14 18 12 51 -32 43 -58 -4 -12 -10 -24 -15 -27 -5
-3 -6 -16 -2 -29 4 -17 8 -19 14 -9 7 11 11 10 18 -2 5 -8 7 -18 5 -22 -3 -4
0 -8 5 -8 6 0 11 -9 11 -20 0 -11 3 -20 8 -20 4 0 15 -12 24 -27 l17 -28 1 24
c0 13 3 21 6 18 4 -4 19 2 34 13 34 24 41 25 34 5 -4 -8 -1 -15 5 -15 15 0 14
-13 -4 -36 -15 -18 -16 -18 -13 6 4 37 -23 32 -39 -7 l-13 -32 31 6 c23 4 30
2 29 -8 -5 -32 1 -46 25 -57 33 -15 89 6 75 28 -6 8 -10 20 -10 25 0 6 4 4 9
-4 7 -10 13 -11 30 -2 14 8 21 8 21 1 0 -14 13 -12 36 6 18 14 18 15 -6 8 -30
-7 -22 1 36 42 22 16 39 35 36 42 -5 15 9 15 28 -1 22 -17 23 -37 5 -57 -30
-33 1 -89 40 -74 18 7 19 21 3 27 -9 4 -7 6 3 6 15 1 24 31 9 31 -4 0 -6 14
-5 30 1 21 -3 30 -14 31 -9 1 -5 4 9 8 14 4 24 13 22 20 -1 7 2 10 8 6 5 -3
18 -1 29 4 14 8 20 7 25 -4 3 -8 2 -14 -2 -14 -29 5 -42 -3 -42 -26 0 -25 14
-33 25 -15 3 6 15 10 26 10 10 0 19 5 19 12 0 6 3 8 7 4 5 -4 1 -13 -7 -19 -8
-7 -23 -25 -33 -40 l-19 -29 24 7 c21 5 20 4 -7 -19 -16 -14 -36 -26 -42 -26
-7 0 -13 -5 -13 -11 0 -5 5 -7 10 -4 14 9 12 -8 -4 -30 -8 -11 -11 -25 -8 -33
4 -11 6 -11 13 0 5 7 9 9 9 3 0 -5 -14 -26 -30 -45 l-30 -35 5 35 c5 29 4 31
-4 13 -12 -26 -31 -31 -31 -8 0 8 -5 15 -11 15 -6 0 -9 -6 -6 -12 7 -21 -12
-48 -29 -41 -13 5 -13 7 1 23 17 19 19 30 6 30 -5 0 -11 -10 -14 -21 -4 -15
-11 -20 -21 -16 -15 6 -21 -8 -17 -40 1 -7 -8 -17 -19 -23 -17 -9 -20 -18 -16
-43 6 -32 6 -32 -5 -4 -13 32 -20 33 -43 8 -16 -18 -16 -20 1 -38 11 -10 25
-37 33 -60 9 -28 19 -43 30 -43 9 0 20 -3 24 -7 23 -23 51 -5 59 37 3 16 5 8
6 -20 1 -25 5 -40 9 -34 4 6 15 13 25 17 9 4 22 18 27 32 5 14 11 25 13 25 11
0 47 -39 47 -50 0 -9 5 -8 19 4 10 9 25 14 35 10 9 -3 16 -2 16 4 0 5 13 12
29 14 38 6 46 -21 26 -88 -10 -33 -11 -50 -4 -55 7 -4 5 -12 -5 -22 -23 -23
-21 -40 3 -27 14 7 22 7 26 0 4 -6 11 -8 16 -5 5 3 6 -1 3 -9 -4 -11 0 -16 10
-16 9 0 16 -7 16 -15 0 -9 -6 -12 -15 -9 -12 5 -15 -1 -13 -27 2 -23 -1 -33
-9 -32 -8 2 -13 -7 -13 -21 0 -32 -7 -35 -66 -37 -27 -1 -56 -5 -65 -10 -11
-5 -23 -2 -38 12 -25 23 -27 39 -6 39 18 0 20 46 3 57 -15 9 -36 40 -44 65 -3
9 -18 18 -33 20 -20 2 -27 9 -29 31 -2 15 -7 27 -11 27 -5 0 -11 9 -14 20 -7
25 -47 27 -48 3 0 -14 -2 -13 -9 5 -10 23 -25 29 -35 13 -3 -6 2 -16 11 -23
51 -42 65 -60 59 -76 -4 -9 -9 -34 -12 -55 -5 -33 -12 -41 -53 -62 -32 -16
-47 -30 -46 -42 1 -14 -5 -17 -29 -15 -21 2 -26 0 -16 -6 7 -6 11 -14 7 -20
-3 -6 -1 -14 5 -18 8 -5 9 -3 4 7 -6 10 -5 11 4 3 6 -6 9 -18 5 -28 -5 -14 -9
-14 -22 -4 -12 10 -11 6 3 -15 22 -34 13 -47 -17 -21 -12 10 -18 13 -13 5 6
-10 4 -12 -4 -7 -7 5 -10 14 -7 21 3 9 -2 11 -17 7 -20 -5 -21 -4 -8 12 8 9
12 19 9 21 -7 8 -38 -6 -38 -16 0 -5 -9 -9 -19 -9 -11 0 -23 -4 -26 -10 -3 -5
3 -10 14 -10 22 0 25 -8 15 -34 -9 -23 -74 -18 -74 6 0 5 6 6 13 2 9 -6 9 -5
0 7 -9 11 -8 18 3 33 7 10 11 23 7 29 -3 5 3 6 15 3 31 -10 58 9 66 44 3 17
11 30 18 29 63 -8 72 11 34 75 -13 23 -29 58 -35 78 -16 48 -23 52 -50 27 -18
-17 -25 -18 -36 -9 -8 7 -15 9 -15 5 0 -4 -11 4 -25 19 -20 22 -28 25 -44 16
-31 -16 -32 -26 -9 -55 15 -19 28 -26 44 -22 27 5 54 -9 39 -20 -5 -5 -11 -15
-13 -23 -2 -8 -8 -16 -13 -18 -5 -2 -9 -10 -9 -18 0 -8 -4 -14 -10 -14 -5 0
-9 -6 -7 -12 1 -8 -7 -12 -22 -10 -15 2 -21 0 -17 -7 4 -6 2 -11 -4 -11 -7 0
-10 -7 -6 -15 6 -17 -9 -21 -20 -4 -3 6 -17 8 -30 5 -20 -5 -24 -3 -24 17 0
31 -10 40 -28 24 -13 -10 -14 -8 -9 15 l7 27 -24 -24 c-14 -14 -30 -25 -35
-25 -6 0 -19 -17 -30 -38 -24 -47 -51 -73 -51 -48 0 9 5 16 10 16 6 0 10 9 10
20 0 15 -7 20 -25 20 -16 0 -25 -6 -25 -15 0 -13 -34 -18 -97 -15 -5 1 -7 21
-6 45 2 32 -1 45 -10 45 -21 0 -27 -11 -15 -29 8 -13 4 -25 -13 -53 -19 -30
-30 -37 -54 -37 -23 0 -26 2 -12 8 17 6 17 8 4 19 -8 7 -18 24 -21 37 -4 16
-13 25 -26 25 -11 0 -29 9 -40 20 -28 28 -64 26 -81 -6 -19 -37 -74 -90 -99
-97 -11 -3 -27 1 -34 9 -8 8 -21 14 -30 14 -10 0 -17 15 -21 47 -4 27 -9 56
-12 66 -2 9 0 17 5 17 6 0 8 8 5 18 -6 25 42 48 64 31 12 -10 19 -7 39 16 29
34 32 59 5 52 -13 -3 -22 3 -30 19 -6 13 -15 24 -21 24 -11 0 -52 81 -44 89 3
3 9 -1 15 -9 7 -13 10 -13 18 -1 5 7 14 10 21 6 7 -4 10 -2 9 6 -8 38 10 55
61 57 48 2 50 1 50 -25 0 -15 10 -37 21 -49 24 -25 45 -59 55 -86 3 -10 13
-18 21 -18 10 0 12 -6 8 -19 -5 -15 -2 -18 13 -14 24 6 128 -43 148 -71 16
-21 16 -21 10 4 -3 15 -8 59 -11 99 -3 40 -11 81 -18 92 -12 19 -37 26 -37 10
0 -13 -44 0 -53 16 -6 10 -12 11 -22 3 -10 -8 -12 -5 -12 14 0 29 40 42 63 19
11 -12 18 -12 29 -3 7 6 30 12 49 13 39 2 43 6 24 25 -10 10 -10 17 -1 32 11
16 9 20 -10 26 -12 5 -26 7 -31 6 -13 -4 -34 30 -29 46 3 8 -3 15 -16 19 -11
3 -21 12 -21 19 0 8 -18 22 -40 31 -22 10 -40 23 -40 29 0 6 -11 21 -24 34
-14 12 -28 35 -31 51 -4 16 -11 29 -17 29 -11 0 -38 25 -38 35 0 4 7 5 15 2 8
-4 17 -2 20 3 4 6 -11 10 -34 10 -38 0 -68 19 -43 28 7 2 10 13 6 28 -7 29 10
32 38 7 15 -14 23 -15 37 -6 14 9 22 9 31 0 10 -10 12 -7 7 11 -7 29 0 28 25
-3 11 -14 26 -25 34 -25 8 0 14 -6 14 -14 0 -40 68 -116 78 -87 2 6 10 11 18
11 8 0 14 4 14 10 0 5 10 14 21 21 18 9 24 8 31 -5 6 -11 17 -15 31 -11 16 5
18 4 8 -3 -8 -6 -19 -26 -26 -45 -10 -30 -9 -36 7 -46 19 -12 35 -15 25 -5 -3
4 0 13 8 20 10 11 20 12 41 4 19 -8 30 -8 38 0 5 5 17 10 26 10 13 0 13 -1 0
-10 -11 -7 -7 -8 14 -6 15 2 31 8 35 15 4 7 18 13 30 14 19 1 21 5 15 32 -3
16 -12 40 -20 53 -13 20 -11 26 9 23 4 0 7 4 7 10 0 6 8 8 18 5 9 -3 5 4 -11
17 -15 13 -29 33 -32 45 -2 12 -7 27 -10 32 -3 6 -3 10 2 10 4 0 14 -14 22
-31 21 -47 24 -27 3 25 -10 26 -21 44 -25 40 -4 -4 -7 0 -7 8 0 9 -7 21 -15
28 -11 9 -13 16 -5 24 5 5 10 29 10 53 0 24 5 43 10 43 6 0 10 -3 11 -7z
m-611 -48 c0 -9 6 -12 17 -8 11 4 14 3 9 -6 -5 -8 1 -22 15 -37 20 -21 21 -26
9 -34 -20 -13 -30 -12 -30 0 0 6 -7 10 -15 10 -16 0 -26 31 -23 68 2 24 18 31
18 7z m-945 -5 c3 -5 -1 -10 -9 -10 -8 0 -18 5 -21 10 -3 6 1 10 9 10 8 0 18
-4 21 -10z m1065 -12 c26 -29 8 -36 -19 -9 -12 12 -21 23 -21 26 0 12 21 3 40
-17z m660 -20 c0 -24 -17 -23 -25 2 -8 26 4 48 16 29 5 -8 9 -22 9 -31z m1073
25 c-8 -24 -23 -43 -34 -43 -4 0 -3 14 2 30 6 17 17 30 25 30 8 0 11 -6 7 -17z
m-2525 -39 c1 -13 -2 -24 -7 -24 -16 0 -43 40 -37 55 8 23 41 0 44 -31z m1346
31 c3 -8 1 -15 -4 -15 -6 0 -10 7 -10 15 0 8 2 15 4 15 2 0 6 -7 10 -15z
m-254 -5 c0 -5 -4 -10 -10 -10 -5 0 -10 5 -10 10 0 6 5 10 10 10 6 0 10 -4 10
-10z m-203 -42 c-3 -8 -6 -5 -6 6 -1 11 2 17 5 13 3 -3 4 -12 1 -19z m-433
-14 c22 -21 20 -33 -4 -27 -24 6 -34 19 -25 33 8 13 11 13 29 -6z m210 -51
c-4 -14 -2 -23 5 -23 19 0 12 -17 -10 -23 -15 -4 -20 -11 -16 -21 4 -10 1 -16
-8 -16 -23 0 -18 -17 8 -24 12 -3 33 -22 47 -43 14 -20 35 -48 48 -61 28 -31
28 -49 1 -57 -16 -6 -18 -9 -8 -15 7 -5 16 -7 21 -4 4 2 12 -5 19 -17 9 -17 8
-23 -2 -30 -11 -6 -10 -9 4 -15 9 -3 24 -4 32 0 9 3 24 -4 37 -19 15 -17 24
-21 29 -14 4 7 9 4 14 -10 11 -36 -2 -37 -44 -3 -22 18 -46 32 -53 32 -15 1
-54 28 -50 35 11 21 -28 35 -107 37 -34 1 -45 10 -56 46 -6 21 -4 23 14 17 18
-5 21 -2 21 19 0 43 -56 88 -115 92 -46 3 -59 8 -67 24 -10 22 -9 52 1 46 5
-3 14 0 20 7 6 8 23 12 42 9 26 -4 30 -2 27 14 -2 11 -11 18 -21 18 -22 -2
-23 32 -1 40 22 8 37 -3 31 -24 -3 -13 5 -19 38 -27 35 -8 42 -7 38 4 -3 7 1
13 9 13 11 0 13 9 10 31 l-5 31 26 -23 c20 -16 25 -28 21 -46z m-269 37 c-3
-5 -13 -6 -23 -3 -14 5 -15 3 -4 -8 16 -17 15 -29 -2 -29 -22 0 -30 19 -16 35
14 16 55 21 45 5z m1181 -6 c-3 -9 -6 -22 -6 -30 0 -8 -4 -14 -9 -14 -6 0 -8
12 -7 28 4 33 4 32 17 32 6 0 8 -7 5 -16z m190 -41 c-10 -26 -18 -8 -9 23 5
21 8 24 11 11 2 -10 1 -25 -2 -34z m158 -62 c-6 -43 -10 -47 -28 -32 -10 9
-12 20 -6 42 10 34 10 32 11 62 1 20 2 19 14 -8 7 -16 11 -45 9 -64z m986 79
c0 -5 -5 -10 -11 -10 -5 0 -7 5 -4 10 3 6 8 10 11 10 2 0 4 -4 4 -10z m-2872
-46 c-10 -10 -28 6 -28 24 0 15 1 15 17 -1 9 -9 14 -19 11 -23z m-193 16 c3
-5 -3 -10 -14 -10 -12 0 -21 5 -21 10 0 6 6 10 14 10 8 0 18 -4 21 -10z m2419
-2 c-27 -49 -68 -107 -72 -104 -4 5 67 116 75 116 2 0 1 -6 -3 -12z m-1044
-10 c0 -16 -23 -19 -37 -5 -14 13 -13 15 11 14 14 -1 26 -5 26 -9z m-1122 -25
c-2 -14 4 -18 32 -18 20 1 40 -6 47 -15 11 -13 14 -13 24 0 9 13 10 13 6 0 -2
-8 4 -28 14 -43 21 -36 14 -67 -15 -64 -13 1 -21 -4 -21 -13 0 -8 7 -15 15
-16 38 -2 38 -3 27 -28 -10 -20 -15 -22 -26 -13 -12 9 -13 9 -8 0 8 -13 -12
-53 -27 -53 -5 0 -22 14 -38 32 -15 17 -28 27 -28 20 0 -6 5 -14 10 -17 6 -3
10 -14 10 -23 0 -13 -5 -12 -23 8 -24 26 -54 95 -37 85 6 -4 10 -1 10 4 0 6 7
11 15 11 8 0 15 3 15 6 0 13 -28 32 -46 31 -35 0 -44 3 -44 14 0 8 6 7 16 -2
15 -12 16 -10 9 29 -4 28 -3 42 4 42 6 0 11 7 11 15 0 9 6 12 15 9 8 -4 15 -1
15 5 0 6 5 11 10 11 6 0 10 -8 8 -17z m2292 -24 c-5 -24 -16 -47 -29 -55 -11
-8 -21 -22 -21 -30 0 -8 -4 -14 -10 -14 -13 0 -14 -2 13 50 54 105 58 109 47
49z m655 22 c-3 -6 -14 -11 -23 -11 -15 1 -15 2 2 15 21 16 32 13 21 -4z
m-1365 -1 c0 -5 -5 -10 -11 -10 -5 0 -7 5 -4 10 3 6 8 10 11 10 2 0 4 -4 4
-10z m-1790 -16 c0 -2 -7 -4 -15 -4 -8 0 -15 4 -15 10 0 5 7 7 15 4 8 -4 15
-8 15 -10z m500 -10 c0 -20 -13 -17 -27 5 -10 16 -9 18 8 14 10 -3 19 -12 19
-19z m1941 -1 c-12 -20 -14 -14 -5 12 4 9 9 14 11 11 3 -2 0 -13 -6 -23z m559
7 c0 -5 -9 -14 -20 -20 -22 -12 -27 -1 -8 18 14 14 28 16 28 2z m108 -32 c-3
-7 -13 -15 -24 -17 -16 -3 -17 -1 -5 13 16 19 34 21 29 4z m44 -10 c-6 -6 -15
-8 -19 -4 -4 4 -1 11 7 16 19 12 27 3 12 -12z m-358 -23 c-4 -8 -11 -15 -16
-15 -6 0 -5 6 2 15 7 8 14 15 16 15 2 0 1 -7 -2 -15z m146 8 c0 -12 -33 -43
-47 -43 -17 0 -17 10 4 32 16 18 43 25 43 11z m-1150 -23 c0 -5 -4 -10 -10
-10 -5 0 -10 5 -10 10 0 6 5 10 10 10 6 0 10 -4 10 -10z m475 -20 c3 -5 -1
-10 -10 -10 -9 0 -13 5 -10 10 3 6 8 10 10 10 2 0 7 -4 10 -10z m-885 -24 c0
-2 -9 -6 -20 -9 -11 -3 -18 -1 -14 4 5 9 34 13 34 5z m1336 -32 c-9 -8 -16
-19 -16 -24 0 -8 -38 -23 -56 -21 -7 1 -14 -5 -18 -14 -3 -8 -12 -15 -21 -15
-8 0 -15 -4 -15 -10 0 -5 -6 -10 -13 -10 -15 0 -57 -44 -57 -60 0 -5 -9 -14
-21 -20 -11 -7 -18 -14 -15 -17 3 -3 12 0 21 7 8 7 15 10 15 7 0 -3 3 -14 7
-24 3 -10 3 -15 -2 -11 -4 4 -21 -4 -37 -17 -16 -14 -34 -25 -39 -25 -6 0 -17
-7 -25 -15 -8 -8 -21 -12 -29 -9 -10 4 -15 0 -15 -11 0 -14 6 -16 42 -10 37 7
41 6 30 -7 -6 -8 -13 -27 -14 -42 -3 -31 -6 -31 -38 -9 -44 30 -71 67 -68 93
3 21 8 25 36 24 18 -1 32 3 33 10 1 28 10 82 14 94 5 13 44 32 79 39 11 2 29
13 39 24 11 11 26 18 34 15 9 -4 21 1 27 9 6 8 27 17 46 20 20 2 42 13 50 24
8 11 21 20 28 21 10 0 9 -4 -2 -16z m-456 -30 c0 -7 -7 -20 -16 -28 -8 -9 -12
-16 -9 -16 4 0 0 -11 -9 -25 -9 -13 -16 -31 -16 -40 0 -24 -18 -18 -22 8 -2
14 -9 21 -21 21 -9 -1 -17 1 -17 5 1 11 30 46 40 47 6 1 15 2 20 3 16 2 12 21
-4 21 -8 0 -18 5 -22 11 -5 9 1 10 20 5 20 -5 26 -3 26 10 0 13 3 14 15 4 8
-7 15 -18 15 -26z m370 32 c0 -2 -7 -7 -16 -10 -8 -3 -12 -2 -9 4 6 10 25 14
25 6z m-325 -37 c-10 -15 -25 -10 -19 6 4 8 10 12 15 9 5 -3 7 -10 4 -15z m35
1 c0 -5 -2 -10 -4 -10 -3 0 -8 5 -11 10 -3 6 -1 10 4 10 6 0 11 -4 11 -10z
m140 -30 c0 -5 -5 -10 -11 -10 -5 0 -7 5 -4 10 3 6 8 10 11 10 2 0 4 -4 4 -10z
m-200 -4 c0 -3 -4 -8 -10 -11 -5 -3 -10 -1 -10 4 0 6 5 11 10 11 6 0 10 -2 10
-4z m600 0 c0 -2 -8 -10 -17 -17 -16 -13 -17 -12 -4 4 13 16 21 21 21 13z
m-532 -42 c-5 -20 -7 -38 -4 -42 3 -3 6 0 6 6 0 7 9 12 21 12 15 0 19 -4 15
-16 -3 -9 -6 -20 -6 -26 0 -6 -9 -8 -19 -5 -14 3 -18 1 -14 -9 3 -8 0 -14 -6
-14 -7 0 -22 -11 -34 -24 -25 -27 -39 -22 -70 26 -19 30 -22 48 -7 48 5 0 7
-7 4 -15 -13 -34 17 -12 42 30 29 51 38 58 23 19 -12 -34 -4 -43 11 -12 12 22
40 58 46 58 1 0 -2 -16 -8 -36z m112 22 c0 -3 -4 -8 -10 -11 -5 -3 -10 -1 -10
4 0 6 5 11 10 11 6 0 10 -2 10 -4z m-45 -16 c4 -6 -5 -10 -20 -10 -15 0 -24 4
-20 10 3 6 12 10 20 10 8 0 17 -4 20 -10z m354 -11 c-32 -32 -14 -35 31 -5 44
29 52 28 18 -4 -12 -11 -18 -23 -15 -27 4 -3 18 3 30 15 13 12 26 19 30 15 4
-3 16 2 27 12 11 10 22 16 25 13 5 -5 -11 -23 -84 -90 -68 -63 -109 -84 -57
-29 22 22 37 44 33 47 -4 4 -7 2 -7 -5 0 -8 -7 -11 -15 -7 -8 3 -14 1 -12 -5
3 -14 -30 -36 -39 -26 -4 4 1 16 11 27 10 11 15 20 12 20 -11 0 -72 -40 -62
-40 6 0 2 -5 -8 -11 -34 -20 -28 -2 10 32 21 19 46 47 56 62 9 15 22 27 27 27
6 0 1 -9 -11 -21z m-208 -22 c-10 -9 -11 -8 -5 6 3 10 9 15 12 12 3 -3 0 -11
-7 -18z m-311 3 c0 -5 -2 -10 -4 -10 -3 0 -8 5 -11 10 -3 6 -1 10 4 10 6 0 11
-4 11 -10z m-110 -14 c0 -3 -4 -8 -10 -11 -5 -3 -10 -1 -10 4 0 6 5 11 10 11
6 0 10 -2 10 -4z m40 -31 c0 -7 6 -18 13 -22 9 -6 7 -13 -9 -29 l-21 -20 0 43
c0 24 4 43 8 43 5 0 9 -7 9 -15z m410 -75 c0 -5 -5 -10 -11 -10 -5 0 -7 5 -4
10 3 6 8 10 11 10 2 0 4 -4 4 -10z m15 -37 l-28 -28 23 33 c12 18 24 31 27 28
3 -2 -7 -17 -22 -33z m-35 13 c0 -2 -7 -9 -15 -16 -13 -11 -14 -10 -9 4 5 14
24 23 24 12z m-394 -26 c0 -11 -4 -20 -8 -20 -10 0 -11 24 -1 33 9 9 9 10 9
-13z m-189 -22 c-3 -8 -6 -5 -6 6 -1 11 2 17 5 13 3 -3 4 -12 1 -19z m554 -26
c-6 -12 -5 -23 5 -37 8 -10 14 -24 14 -29 0 -6 -5 -4 -10 4 -5 8 -10 13 -11
10 0 -3 -2 -13 -4 -23 -2 -13 1 -16 15 -12 12 4 6 -7 -16 -31 -19 -20 -38 -34
-41 -30 -3 3 -12 1 -20 -5 -8 -7 -13 -8 -13 -1 0 5 -6 12 -13 15 -10 4 -13 -1
-10 -16 2 -12 -3 -31 -11 -42 -15 -19 -16 -19 -6 7 5 15 7 34 4 43 -3 8 9 40
27 72 34 60 48 75 61 67 5 -3 11 2 14 10 3 9 10 16 15 16 6 0 6 -7 0 -18z
m-203 -64 c5 7 16 10 25 6 24 -9 21 -27 -3 -19 -11 4 -20 2 -20 -4 0 -11 5
-13 33 -15 12 -1 27 -16 27 -27 0 -4 -11 -10 -24 -13 -13 -3 -31 -8 -38 -11
-11 -5 -14 1 -10 23 2 17 -2 35 -12 44 -8 9 -12 18 -9 22 4 3 10 1 15 -6 6
-11 10 -10 16 0z m-1281 -50 c-3 -8 -6 -5 -6 6 -1 11 2 17 5 13 3 -3 4 -12 1
-19z m1283 -207 c0 -5 -22 -37 -50 -72 -27 -35 -50 -69 -50 -75 0 -7 -7 -14
-15 -18 -17 -6 -21 9 -5 19 15 9 12 27 -2 19 -8 -4 -10 -3 -5 2 5 5 13 9 18 9
10 0 99 105 99 117 0 5 2 8 5 8 3 0 5 -4 5 -9z m-1343 -33 c-3 -8 -6 -5 -6 6
-1 11 2 17 5 13 3 -3 4 -12 1 -19z m1029 -35 c-11 -11 -19 6 -11 24 8 17 8 17
12 0 3 -10 2 -21 -1 -24z m-756 17 c0 -5 -4 -10 -10 -10 -5 0 -10 5 -10 10 0
6 5 10 10 10 6 0 10 -4 10 -10z m1062 -37 c-23 -33 -79 -85 -67 -63 5 8 21 32
38 53 33 42 59 51 29 10z m-1076 8 c-4 -5 0 -11 6 -14 10 -3 10 -8 -2 -23 -14
-19 -14 -19 8 0 43 37 31 9 -19 -45 -28 -30 -46 -44 -40 -32 6 12 15 24 20 28
5 3 8 20 6 37 -3 17 0 38 6 45 13 15 23 18 15 4z m974 5 c0 -2 -8 -10 -17 -17
-16 -13 -17 -12 -4 4 13 16 21 21 21 13z m-1110 -48 c24 -51 24 -51 3 -40 -9
6 -17 16 -19 25 -1 8 -5 24 -9 36 -11 36 3 23 25 -21z m897 -15 c-3 -10 -5 -4
-5 12 0 17 2 24 5 18 2 -7 2 -21 0 -30z m167 -10 c-12 -37 -27 -62 -35 -57 -5
2 -18 -14 -29 -37 -33 -63 -37 -37 -6 35 20 47 34 66 49 69 12 2 23 5 24 6 1
0 0 -7 -3 -16z m-167 -45 c-3 -8 -6 -5 -6 6 -1 11 2 17 5 13 3 -3 4 -12 1 -19z"/>
<path d="M2671 2013 c0 -4 4 -17 9 -28 8 -19 9 -19 9 2 1 12 -3 25 -9 28 -5 3
-10 3 -9 -2z"/>
<path d="M2640 1943 c0 -10 7 -31 15 -47 8 -15 15 -36 15 -45 0 -30 24 -71 43
-71 20 0 22 11 5 28 -9 9 -9 12 0 12 7 0 12 5 12 11 0 5 -4 8 -9 4 -6 -3 -6 6
-1 23 9 35 -4 66 -19 43 -7 -11 -12 -9 -22 10 -7 13 -12 30 -11 37 2 6 -4 12
-13 12 -8 0 -15 -8 -15 -17z"/>
<path d="M2692 1940 c0 -14 2 -19 5 -12 2 6 2 18 0 25 -3 6 -5 1 -5 -13z"/>
<path d="M2015 1890 c10 -11 20 -20 22 -20 2 0 -2 9 -9 20 -7 11 -17 20 -22
20 -5 0 -1 -9 9 -20z"/>
<path d="M2648 1834 c-3 -5 -2 -18 2 -28 5 -16 8 -17 12 -4 7 16 -7 45 -14 32z"/>
<path d="M3261 1805 c0 -12 -6 -26 -13 -33 -6 -6 -9 -14 -6 -18 10 -9 30 35
25 54 -4 13 -5 13 -6 -3z"/>
<path d="M3110 1783 c-14 -9 -37 -24 -52 -35 -22 -14 -26 -15 -22 -3 4 9 1 15
-8 15 -7 0 -19 -14 -25 -31 -8 -20 -17 -29 -30 -27 -14 2 -18 -5 -19 -44 -1
-43 0 -46 17 -38 25 14 29 12 22 -6 -4 -12 -2 -15 8 -12 8 3 13 13 11 22 -2
10 2 24 9 33 10 11 10 16 1 22 -8 5 -6 12 7 23 16 14 20 14 25 2 6 -16 36 -19
36 -4 0 6 5 10 10 10 6 0 10 -8 8 -17 -2 -10 2 -17 9 -16 8 2 10 -4 6 -15 -5
-13 -3 -15 7 -5 10 9 10 21 3 51 -8 29 -7 43 3 57 27 36 15 44 -26 18z m-10
-43 c0 -5 -4 -10 -10 -10 -5 0 -10 5 -10 10 0 6 5 10 10 10 6 0 10 -4 10 -10z"/>
<path d="M2285 1770 c3 -5 13 -10 21 -10 8 0 12 5 9 10 -3 6 -13 10 -21 10 -8
0 -12 -4 -9 -10z"/>
<path d="M2806 1763 c-8 -9 6 -33 19 -33 7 0 18 6 24 14 9 11 6 15 -14 18 -13
3 -27 3 -29 1z"/>
<path d="M2190 1751 c0 -6 5 -13 10 -16 6 -3 10 1 10 9 0 9 -4 16 -10 16 -5 0
-10 -4 -10 -9z"/>
<path d="M2650 1729 c7 -11 14 -19 16 -16 7 7 -7 37 -17 37 -6 0 -5 -9 1 -21z"/>
<path d="M2430 1610 c0 -5 5 -10 11 -10 5 0 7 5 4 10 -3 6 -8 10 -11 10 -2 0
-4 -4 -4 -10z"/>
<path d="M3015 1560 c-3 -5 1 -10 9 -10 8 0 18 5 21 10 3 6 -1 10 -9 10 -8 0
-18 -4 -21 -10z"/>
<path d="M2335 1431 c-10 -20 -12 -32 -4 -36 6 -4 13 -4 16 -1 3 3 12 1 20 -5
10 -9 13 -6 13 14 0 31 -9 57 -21 57 -5 0 -15 -13 -24 -29z"/>
<path d="M2640 1411 c0 -5 5 -13 10 -16 6 -3 10 -2 10 4 0 5 -4 13 -10 16 -5
3 -10 2 -10 -4z"/>
<path d="M2870 1379 c0 -21 23 -79 32 -79 4 0 8 4 8 8 0 4 9 8 20 8 11 0 20
-6 20 -13 0 -7 5 -13 10 -13 6 0 10 7 10 15 0 8 7 15 16 15 13 0 14 3 4 15 -7
8 -16 13 -20 10 -4 -3 -10 2 -14 10 -8 23 -37 18 -44 -7 -6 -21 -7 -21 -12 6
-5 29 -30 50 -30 25z"/>
<path d="M2610 1364 c0 -9 5 -14 12 -12 18 6 21 28 4 28 -9 0 -16 -7 -16 -16z"/>
<path d="M3012 1358 c9 -13 24 -25 34 -27 15 -2 13 2 -9 23 -34 32 -44 33 -25
4z"/>
<path d="M2300 1340 c0 -5 5 -10 11 -10 5 0 7 5 4 10 -3 6 -8 10 -11 10 -2 0
-4 -4 -4 -10z"/>
<path d="M3240 1335 c0 -21 29 -31 43 -15 9 10 9 11 -1 6 -7 -4 -15 -1 -18 8
-8 20 -24 21 -24 1z"/>
<path d="M2865 1280 c-4 -7 -2 -16 6 -21 18 -11 23 -4 11 17 -7 12 -11 13 -17
4z"/>
<path d="M3146 1271 c-4 -5 -2 -20 3 -33 9 -21 10 -21 10 10 1 32 -3 39 -13
23z"/>
<path d="M2330 1254 c0 -3 7 -12 15 -21 20 -19 32 -9 15 12 -12 15 -30 20 -30
9z"/>
<path d="M2508 1236 c-10 -7 -15 -16 -11 -19 11 -12 21 -7 26 13 3 11 4 20 4
20 -1 0 -10 -7 -19 -14z"/>
<path d="M3042 1205 c4 -32 22 -38 26 -9 2 13 -4 24 -13 28 -13 5 -16 0 -13
-19z"/>
<path d="M3615 1300 c-3 -5 -1 -10 4 -10 6 0 11 5 11 10 0 6 -2 10 -4 10 -3 0
-8 -4 -11 -10z"/>
</g>
</svg>
