<?xml version="1.0" standalone="no"?>
<!DOCTYPE svg PUBLIC "-//W3C//DTD SVG 20010904//EN"
 "http://www.w3.org/TR/2001/REC-SVG-20010904/DTD/svg10.dtd">
<svg version="1.0" xmlns="http://www.w3.org/2000/svg"
 width="500.000000pt" height="376.000000pt" viewBox="0 0 500.000000 376.000000"
 preserveAspectRatio="xMidYMid meet">

<g transform="translate(0.000000,376.000000) scale(0.100000,-0.100000)"
fill="#000000" stroke="none">
<path d="M0 3335 c1 -259 5 -427 10 -430 13 -8 13 -102 0 -110 -6 -4 -10 -158
-10 -430 l0 -423 23 5 22 5 -22 -20 c-19 -17 -23 -31 -23 -79 0 -54 3 -61 30
-81 16 -12 34 -22 40 -22 5 0 10 -4 10 -8 0 -5 12 -14 27 -21 21 -9 28 -9 34
0 5 8 25 12 54 10 35 -1 52 3 73 20 17 14 20 20 9 16 -22 -8 -19 13 4 23 8 4
24 12 36 18 31 16 53 15 53 -3 0 -8 7 -15 16 -15 10 0 14 6 10 15 -3 8 -1 15
3 15 5 0 19 11 32 25 13 13 28 25 32 25 5 0 17 10 27 23 10 12 22 18 26 14 5
-5 -1 -16 -12 -25 -21 -18 -33 -82 -14 -82 5 0 17 11 26 24 8 14 21 23 28 20
14 -6 19 32 6 57 -8 14 -6 16 11 12 19 -5 20 -2 18 30 -2 20 0 39 4 43 4 4 7
0 7 -10 0 -13 5 -16 21 -11 14 5 19 3 15 -3 -3 -6 -2 -13 4 -17 6 -3 13 1 16
9 8 20 90 22 97 4 3 -7 10 0 17 17 13 31 14 30 24 -18 4 -17 11 -25 18 -21 8
5 9 2 5 -9 -3 -9 -3 -16 1 -16 4 1 16 1 27 0 18 -2 17 -4 -5 -13 -14 -6 -28
-10 -32 -10 -5 1 -8 -7 -8 -18 0 -11 -4 -20 -9 -20 -5 0 -15 -20 -22 -45 -9
-32 -16 -41 -25 -34 -6 5 -20 6 -30 3 -49 -18 -76 -64 -98 -170 -15 -70 -5
-110 36 -145 14 -12 17 -17 7 -13 -40 13 -79 -100 -62 -181 7 -30 15 -41 33
-46 l25 -6 -29 -12 c-18 -7 -26 -16 -23 -25 4 -9 -4 -18 -23 -24 -16 -6 -37
-19 -48 -29 -22 -21 -51 -41 -72 -49 -38 -14 -45 -23 -48 -62 -4 -49 6 -52 56
-22 26 16 32 26 32 55 0 45 23 47 44 3 20 -39 20 -53 0 -84 -13 -19 -14 -28
-6 -36 9 -9 16 -7 27 8 13 17 14 15 15 -35 0 -42 -3 -52 -14 -48 -8 3 -20 -1
-26 -9 -18 -20 -67 -17 -90 6 -11 11 -20 16 -20 10 0 -5 -6 -7 -14 -4 -17 7
-40 -31 -32 -52 5 -12 1 -14 -17 -7 -12 4 -67 8 -122 8 -95 -1 -100 0 -125 26
-17 18 -39 29 -67 32 l-43 5 0 -434 0 -434 449 0 c399 0 450 2 462 16 7 9 22
20 34 25 42 20 70 39 85 58 13 17 17 18 28 5 11 -11 10 -14 -2 -14 -9 0 -20
-9 -26 -20 -10 -18 -8 -20 22 -20 18 0 44 -3 57 -7 21 -5 22 -3 16 17 -6 19
-4 21 14 15 15 -4 21 -2 21 8 0 10 7 13 18 10 10 -2 24 2 30 10 11 13 6 14
-35 9 -27 -2 -56 -9 -67 -14 -14 -8 -17 -7 -14 4 3 7 22 17 44 22 21 4 51 15
66 23 25 13 28 12 28 -2 0 -9 5 -13 10 -10 6 4 8 16 4 27 -5 18 -3 20 25 16
19 -3 36 1 42 9 6 7 17 13 23 13 11 0 80 29 117 50 9 5 34 11 55 14 35 6 37 5
14 -5 -147 -69 -151 -71 -145 -88 3 -12 -1 -17 -14 -17 -11 0 -17 4 -14 9 3 5
0 8 -8 5 -28 -9 -20 -42 16 -66 l35 -22 10 26 c6 15 12 25 13 23 1 -2 11 -15
22 -28 11 -14 14 -21 8 -17 -8 4 -13 1 -13 -8 0 -21 -45 -31 -75 -18 -18 8
-25 8 -29 -1 -3 -9 -5 -9 -5 1 -1 6 -10 12 -21 12 -16 0 -20 -7 -20 -35 l0
-35 341 0 c187 0 338 4 335 9 -3 4 1 17 9 27 11 14 14 15 15 4 0 -11 3 -11 12
-2 9 9 7 16 -6 31 -24 26 -14 39 29 38 19 -1 35 -2 35 -3 0 -2 -9 -19 -21 -38
-18 -31 -19 -36 -5 -36 9 0 16 8 16 18 0 10 5 23 11 29 5 5 11 42 12 81 1 49
5 65 11 54 5 -10 14 -20 20 -24 8 -6 8 -10 0 -15 -14 -10 -25 -53 -13 -53 5 0
13 10 18 23 5 13 16 29 25 36 9 7 16 20 16 27 0 8 5 14 10 14 6 0 10 5 10 11
0 7 8 18 18 25 13 10 17 27 17 83 0 61 12 73 14 14 1 -13 6 -23 11 -23 7 0 6
-8 -2 -22 -6 -13 -15 -45 -19 -73 -9 -69 -17 -97 -29 -109 -5 -5 -10 -16 -10
-23 0 -21 -50 -91 -68 -96 -10 -3 -5 -5 10 -6 14 0 29 5 31 12 4 10 6 10 6 0
1 -10 294 -13 1431 -13 l1430 0 0 1880 0 1880 -2215 0 c-2103 0 -2215 -1
-2215 -17 -1 -17 -1 -17 -11 0 -12 21 -29 22 -29 1 0 -11 -6 -14 -20 -9 -22 7
-50 -14 -50 -39 0 -9 -4 -16 -10 -16 -5 0 -10 4 -10 10 0 5 -7 7 -15 4 -10 -4
-18 3 -25 21 -10 27 -11 27 -30 10 -19 -18 -20 -17 -20 8 l0 27 -175 0 -175 0
0 -425z m1180 385 c0 -5 -4 -10 -10 -10 -5 0 -10 5 -10 10 0 6 5 10 10 10 6 0
10 -4 10 -10z m15 -291 c7 -67 5 -77 -10 -82 -33 -13 -37 2 -30 132 8 156 17
190 26 96 3 -38 10 -104 14 -146z m1059 135 c3 -8 2 -12 -4 -9 -6 3 -10 10
-10 16 0 14 7 11 14 -7z m-2010 -5 c-2 -4 0 -10 5 -14 20 -12 -4 -48 -100
-153 -51 -56 -61 -81 -31 -83 9 -1 4 -5 -13 -8 -16 -4 -38 -4 -48 1 -20 10
-23 38 -4 38 14 0 57 118 57 155 0 30 16 48 52 62 35 12 90 14 82 2z m401
-119 c27 -7 27 -8 5 -8 -14 0 -36 4 -50 8 -20 6 -21 8 -5 8 11 0 34 -4 50 -8z
m1774 -75 c16 -16 36 -44 45 -61 15 -30 14 -32 -5 -37 -15 -4 -28 7 -58 51
-21 32 -40 66 -43 77 -3 11 -9 29 -13 40 -5 14 1 11 20 -10 14 -16 39 -43 54
-60z m-919 -53 c0 -13 -12 -22 -22 -16 -10 6 -1 24 13 24 5 0 9 -4 9 -8z
m-642 -77 c-10 -21 -8 -28 8 -41 10 -8 29 -19 41 -24 12 -5 27 -18 33 -30 9
-17 8 -20 -9 -20 -11 0 -24 7 -29 16 -8 15 -12 15 -38 -2 -16 -10 -30 -19 -32
-20 -3 -2 15 -84 25 -110 6 -17 5 -17 -10 -5 -9 7 -17 20 -17 28 0 8 -4 11
-10 8 -6 -4 -10 6 -10 22 -1 27 -40 83 -58 83 -11 0 -37 48 -30 56 4 3 23 -12
42 -33 35 -37 36 -37 30 -11 -5 21 -2 29 11 34 12 5 15 14 11 34 -4 24 -2 27
14 23 11 -3 20 0 20 6 0 6 4 11 10 11 6 0 5 -10 -2 -25z m352 -16 c0 -6 6 -9
13 -6 46 19 50 20 44 10 -12 -20 -78 -46 -89 -35 -7 7 -6 15 3 26 17 18 29 20
29 5z m544 -33 c-16 -13 -26 -28 -21 -32 4 -4 13 -2 19 4 7 7 17 12 22 12 16
0 -26 -26 -51 -33 -13 -3 -23 -2 -23 1 0 10 73 82 78 77 2 -2 -9 -15 -24 -29z
m-1531 7 c3 -10 11 -43 18 -73 6 -30 22 -78 34 -106 17 -39 20 -54 11 -66 -10
-14 -15 -11 -34 18 -12 19 -22 37 -22 41 0 5 -16 23 -35 42 -41 40 -45 55 -10
39 34 -15 46 -1 18 22 -32 25 -41 70 -18 87 25 17 33 17 38 -4z m1637 3 c0 -2
-7 -7 -16 -10 -8 -3 -12 -2 -9 4 6 10 25 14 25 6z m1095 -26 c-3 -5 -14 -10
-23 -10 -15 0 -15 2 -2 10 20 13 33 13 25 0z m-2390 -40 c11 -10 34 -25 50
-33 44 -22 165 -139 165 -159 0 -22 -13 -23 -30 -3 -7 9 -21 13 -35 9 -30 -7
-66 13 -145 81 -36 30 -71 60 -77 66 -14 11 -17 51 -6 63 11 10 55 -3 78 -24z
m2255 -5 c-14 -7 -43 -16 -65 -19 -36 -5 -35 -4 15 14 65 22 85 25 50 5z m390
12 c0 -2 -15 -16 -32 -33 l-33 -29 29 33 c28 30 36 37 36 29z m-2188 -98 c4
-35 9 -91 11 -124 5 -72 51 -185 76 -185 14 0 14 -2 1 -11 -12 -9 -12 -10 3
-5 10 3 25 6 33 6 11 0 12 4 4 19 -8 16 -5 21 19 29 29 10 41 7 41 -10 0 -5
-5 -6 -12 -2 -7 4 -8 3 -4 -5 4 -6 13 -11 19 -10 29 3 57 -2 57 -11 0 -5 -9
-18 -21 -29 l-21 -19 31 -18 c65 -38 74 -154 12 -154 -16 0 -34 -6 -40 -14
-12 -15 -41 -15 -74 -1 -9 4 -23 3 -30 -3 -18 -14 -92 0 -93 18 -1 8 -2 17 -4
20 -3 5 -6 25 -15 79 -3 19 -9 37 -14 40 -16 11 -24 76 -22 181 2 114 -11 194
-36 222 -12 14 -13 18 -3 18 7 0 11 3 7 6 -3 3 2 14 10 24 11 13 22 16 37 11
17 -7 22 -20 28 -72z m178 71 c0 -5 -6 -10 -14 -10 -8 0 -16 -6 -19 -12 -2 -7
-8 -9 -13 -5 -5 5 -1 15 10 23 23 16 36 18 36 4z m-270 -15 c0 -8 -2 -15 -4
-15 -2 0 -6 7 -10 15 -3 8 -1 15 4 15 6 0 10 -7 10 -15z m1665 -35 c-3 -5 -11
-10 -16 -10 -6 0 -7 5 -4 10 3 6 11 10 16 10 6 0 7 -4 4 -10z m-986 -45 c2
-11 14 -32 26 -47 12 -15 32 -48 44 -75 13 -26 27 -55 32 -63 14 -23 25 -52
33 -85 l7 -30 -31 35 c-16 19 -39 51 -51 70 -11 19 -31 51 -45 70 -14 19 -28
47 -31 63 -3 15 -11 27 -19 27 -15 0 -28 35 -19 50 11 18 49 7 54 -15z m393 3
c8 -7 20 -40 27 -73 7 -33 36 -109 65 -170 87 -179 150 -325 151 -350 1 -11
28 -70 44 -95 6 -8 16 -28 23 -45 13 -29 24 -36 106 -72 l43 -18 -4 -61 c-3
-33 -9 -69 -15 -80 -14 -28 -7 -100 12 -119 9 -9 16 -21 16 -26 0 -6 5 -7 10
-4 6 3 10 -1 10 -9 0 -8 10 -22 22 -30 12 -9 23 -22 24 -30 3 -21 -20 -38 -40
-30 -24 9 -20 27 5 21 20 -5 20 -5 4 13 -15 16 -19 17 -31 5 -21 -21 -17 -30
21 -48 19 -9 35 -21 35 -27 0 -5 15 -25 34 -44 34 -36 52 -66 38 -66 -17 0
-51 -41 -46 -54 5 -12 13 -11 51 5 25 11 48 17 51 14 3 -3 3 -6 1 -8 -16 -11
-119 -50 -142 -54 -26 -5 -28 -4 -21 23 4 16 10 34 14 39 15 20 19 76 8 100
-8 18 -19 25 -39 25 -32 0 -63 -26 -55 -47 4 -9 0 -14 -12 -12 -31 3 -55 -1
-49 -8 4 -3 -10 -16 -30 -27 -39 -22 -50 -45 -83 -176 -7 -25 -16 -53 -21 -62
-5 -10 -9 -26 -9 -35 0 -14 -2 -15 -9 -5 -6 10 -10 8 -14 -8 -3 -14 -10 -19
-17 -15 -9 5 -10 1 -6 -13 14 -43 -12 -29 -29 16 -10 26 -22 53 -28 60 -6 8
-6 12 2 12 6 0 11 6 11 14 0 10 -19 15 -69 18 -75 4 -107 22 -113 62 -2 11 -9
20 -15 19 -7 -2 -10 4 -6 13 3 8 2 14 -3 13 -27 -6 -67 24 -85 66 -11 25 -26
45 -34 45 -7 0 -24 12 -37 28 -19 22 -32 28 -71 30 -28 1 -58 -4 -70 -12 -12
-8 -40 -18 -62 -22 -22 -4 -46 -15 -53 -26 -7 -10 -22 -18 -32 -18 -10 0 -22
-5 -25 -10 -4 -6 -10 -8 -15 -5 -4 3 -10 -1 -13 -9 -4 -9 -14 -12 -26 -9 -15
4 -21 1 -21 -11 0 -10 -9 -16 -24 -16 -31 0 -68 -14 -87 -32 -18 -17 -155 -59
-172 -52 -35 13 -66 136 -37 146 6 2 4 24 -5 58 -14 51 -35 80 -59 80 -6 0
-17 14 -25 30 -10 24 -10 34 -1 45 7 8 10 15 6 15 -14 0 27 50 45 55 14 5 18
12 14 26 -6 17 -2 18 27 12 42 -8 44 -9 28 -28 -10 -12 -10 -15 4 -15 10 0 15
-4 11 -9 -6 -10 33 -6 43 4 3 2 11 0 19 -6 9 -9 13 -8 13 0 0 6 9 2 20 -9 22
-22 26 -40 10 -40 -5 0 -10 -5 -10 -10 0 -6 11 -8 25 -4 19 5 25 2 25 -10 0
-26 94 -22 113 4 8 12 18 20 23 19 5 -1 17 1 27 6 10 4 23 2 31 -4 10 -8 22
-7 47 4 19 9 25 14 13 12 -19 -4 -20 -1 -14 39 4 24 12 49 18 57 7 8 8 17 4
22 -4 4 3 5 14 1 18 -5 24 -1 33 25 15 43 14 59 -4 59 -20 0 -19 16 1 24 8 3
13 2 10 -3 -3 -5 3 -11 14 -14 15 -4 20 0 21 16 1 17 2 18 6 5 6 -22 43 -24
43 -3 0 17 46 39 66 31 8 -3 26 1 41 9 17 9 29 11 31 5 2 -6 8 -7 13 -4 6 3 5
11 -2 20 -16 20 -5 28 20 15 17 -10 19 -8 16 11 -3 12 1 25 8 30 15 9 14 124
-2 193 -7 28 -13 58 -14 67 -1 10 -13 20 -29 23 -40 9 -35 28 5 23 33 -3 34
-3 31 29 -2 29 1 33 22 33 32 0 56 39 59 98 13 261 18 303 34 312 22 13 34 12
53 -2z m1098 -2 c0 -3 -4 -8 -10 -11 -5 -3 -10 -1 -10 4 0 6 5 11 10 11 6 0
10 -2 10 -4z m-647 -71 c16 -8 47 -20 69 -26 22 -5 66 -28 98 -50 32 -21 61
-39 66 -39 5 -1 32 -11 59 -24 54 -25 69 -18 37 17 -11 12 -23 32 -26 43 -4
12 -15 29 -26 39 -49 45 5 48 61 4 22 -17 39 -39 39 -50 0 -11 11 -31 25 -45
14 -14 25 -29 25 -34 0 -16 160 -159 160 -144 0 5 5 2 10 -6 14 -22 12 -61 -5
-94 -8 -15 -15 -35 -15 -43 0 -9 -6 -13 -14 -10 -8 3 -27 -5 -42 -18 -32 -28
-34 -27 -38 11 -2 16 -4 32 -5 37 0 4 -8 7 -16 7 -8 0 -15 4 -15 8 0 17 -66
81 -93 91 -16 6 -25 16 -22 21 3 6 -2 13 -12 16 -70 22 -229 139 -303 223 -24
28 -52 51 -62 51 -21 0 -24 16 -5 23 19 8 20 8 50 -8z m-2153 -155 c0 -5 -2
-10 -4 -10 -3 0 -8 5 -11 10 -3 6 -1 10 4 10 6 0 11 -4 11 -10z m-230 -119
c-10 -20 -30 -29 -30 -14 0 10 33 44 37 39 3 -2 0 -14 -7 -25z m328 11 c7 -5
13 -22 13 -38 1 -48 -13 -114 -23 -108 -6 4 -8 -1 -4 -12 3 -11 8 -36 10 -58
3 -21 8 -46 11 -55 4 -12 -6 -23 -35 -39 -24 -13 -40 -17 -40 -9 0 8 -4 7 -12
-1 -10 -10 -10 -15 1 -21 8 -6 9 -11 3 -15 -6 -4 -14 0 -19 7 -10 16 -43 31
-62 28 -9 -2 -12 3 -7 14 5 13 2 15 -15 10 -19 -6 -38 6 -39 25 0 11 60 31 71
24 7 -4 10 -2 7 7 -3 8 -11 13 -17 11 -7 -1 -9 3 -5 9 3 6 1 15 -6 19 -8 5 -8
9 4 13 10 4 20 -1 26 -13 21 -38 50 -18 50 33 -1 20 -2 21 -14 5 -17 -23 -26
-23 -26 2 0 13 7 20 19 20 13 0 19 7 19 25 0 15 -6 25 -14 25 -8 0 -14 5 -14
10 0 6 3 10 6 10 13 0 50 -24 65 -42 14 -18 17 -19 22 -4 5 12 -1 20 -20 27
-30 11 -23 23 15 24 20 0 28 6 30 23 2 15 -2 22 -12 22 -9 0 -16 7 -16 15 0
17 9 19 28 7z m1022 -36 c7 -9 9 -16 6 -16 -13 0 -56 32 -56 42 0 11 32 -6 50
-26z m385 14 c3 -6 -1 -13 -10 -16 -19 -8 -30 0 -20 15 8 14 22 14 30 1z
m-930 -30 c10 -11 16 -22 14 -25 -7 -6 -49 24 -49 36 0 15 16 10 35 -11z m690
-90 c10 -11 14 -20 8 -20 -5 0 -18 9 -28 20 -10 11 -14 20 -8 20 5 0 18 -9 28
-20z m-985 0 c0 -13 -11 -13 -30 0 -12 8 -11 10 8 10 12 0 22 -4 22 -10z m430
-40 c20 -20 26 -40 13 -40 -10 0 -53 42 -53 52 0 14 19 9 40 -12z m2090 -10
c0 -13 -10 -24 -25 -30 -14 -5 -25 -16 -25 -24 0 -7 -11 -21 -25 -30 -32 -21
-38 -20 -25 4 6 11 17 20 25 20 8 0 15 7 15 16 0 15 43 64 56 64 2 0 4 -9 4
-20z m-820 -20 c7 -13 7 -20 1 -20 -6 0 -15 9 -21 20 -7 13 -7 20 -1 20 6 0
15 -9 21 -20z m483 -7 c-7 -2 -19 -2 -25 0 -7 3 -2 5 12 5 14 0 19 -2 13 -5z
m-123 -27 c0 -2 -9 -6 -20 -9 -11 -3 -20 -1 -20 4 0 5 9 9 20 9 11 0 20 -2 20
-4z m477 -12 c-3 -3 -12 -4 -19 -1 -8 3 -5 6 6 6 11 1 17 -2 13 -5z m-747 -84
c0 -5 -2 -10 -4 -10 -3 0 -8 5 -11 10 -3 6 -1 10 4 10 6 0 11 -4 11 -10z
m-1412 -38 c2 -7 -2 -10 -12 -6 -9 3 -16 11 -16 16 0 13 23 5 28 -10z m627 9
c3 -5 1 -12 -5 -16 -5 -3 -10 1 -10 9 0 18 6 21 15 7z m1260 -40 c-21 -43 -29
-39 -8 4 9 19 18 33 21 31 2 -2 -4 -18 -13 -35z m-2334 -11 c13 -10 19 -19 12
-20 -18 0 -63 22 -63 32 0 14 27 9 51 -12z m2139 -73 c0 -5 -7 -4 -15 3 -8 7
-15 20 -15 29 1 13 3 13 15 -3 8 -11 15 -24 15 -29z m173 22 c-6 -21 -29 -36
-39 -26 -6 6 27 47 37 47 4 0 5 -9 2 -21z m-1327 -45 c-10 -13 -21 -22 -27
-19 -5 4 0 20 13 37 25 37 38 20 14 -18z m21 -53 c-6 -17 -16 -30 -22 -28 -13
5 -19 47 -6 47 5 0 13 10 17 22 5 18 8 19 15 6 5 -9 3 -28 -4 -47z m1912 22
c-23 -25 -28 -33 -14 -28 26 11 107 7 119 -5 7 -7 6 -10 -2 -10 -7 0 -12 -11
-12 -25 0 -32 15 -35 159 -32 73 1 116 -2 118 -9 6 -19 62 -6 135 31 l73 36
-35 -30 c-19 -17 -43 -33 -52 -36 -10 -4 -18 -11 -18 -17 0 -6 7 -7 18 -3 40
17 117 45 122 44 3 0 -34 -20 -82 -45 -49 -24 -88 -45 -88 -47 0 -1 37 -1 83
0 78 3 80 2 47 -11 -33 -13 -34 -14 -10 -17 23 -4 21 -6 -15 -18 -38 -13 -55
-26 -55 -44 0 -5 9 -6 20 -2 10 3 27 2 37 -4 13 -6 29 -5 51 4 19 9 53 12 85
10 28 -2 44 -2 33 1 -14 4 -3 13 44 36 57 27 99 31 86 9 -3 -5 1 -12 10 -15
11 -4 14 -13 10 -31 -4 -17 -2 -25 6 -26 9 0 9 -2 2 -5 -7 -3 -9 -14 -6 -26 4
-17 2 -19 -18 -13 -19 6 -22 4 -17 -9 11 -28 -30 -18 -52 13 -22 30 -60 46
-91 36 -12 -4 -21 -20 -25 -48 -5 -29 -17 -51 -39 -70 -24 -22 -26 -26 -8 -17
13 6 30 9 38 6 30 -12 7 -110 -28 -122 -10 -3 -18 -10 -18 -15 0 -5 -7 -9 -15
-9 -8 0 -15 -7 -15 -16 0 -8 -4 -13 -10 -9 -5 3 -17 1 -27 -4 -10 -6 -62 -20
-115 -31 -82 -18 -97 -25 -100 -42 -2 -15 -12 -22 -32 -24 -34 -3 -48 -14 -18
-14 11 0 24 -5 27 -10 4 -6 11 -8 16 -5 5 4 9 -3 9 -14 0 -12 0 -24 0 -28 0
-9 -5 -10 -52 -12 -31 -1 -29 -4 32 -31 36 -16 74 -30 84 -30 11 0 33 -11 50
-24 45 -34 112 -66 138 -66 31 0 49 -13 39 -28 -5 -9 -24 -3 -72 22 -35 19
-84 40 -109 46 -25 7 -52 18 -60 25 -8 7 -28 17 -45 20 -28 7 -29 6 -11 -7 10
-8 16 -20 13 -25 -4 -6 0 -16 8 -23 19 -16 19 -34 0 -26 -35 13 -51 -99 -20
-131 8 -8 15 -11 15 -7 0 17 69 -62 70 -78 0 -20 -30 -24 -60 -8 -12 6 -21 7
-25 0 -3 -5 -13 -6 -22 -3 -13 5 -15 2 -10 -16 5 -22 5 -22 -14 -5 -17 15 -19
15 -19 1 0 -8 6 -18 13 -20 6 -3 -31 -7 -83 -8 l-95 -3 83 -3 c47 -2 82 -8 82
-14 0 -6 -4 -7 -10 -4 -12 8 -90 -14 -111 -32 -8 -7 -23 -13 -32 -13 -9 0 -18
-4 -22 -9 -3 -6 -22 -5 -48 3 -37 10 -42 16 -48 46 -11 68 -46 116 -93 126
-17 3 -52 18 -78 32 -42 22 -46 26 -31 37 16 12 16 19 0 116 -9 57 -17 127
-17 154 0 28 -3 87 -7 133 l-6 82 -98 0 c-90 0 -99 -2 -99 -19 0 -19 -34 -31
-88 -31 -24 0 -24 1 -9 18 10 10 17 22 17 27 0 4 17 22 37 40 l38 32 -38 46
c-20 25 -37 51 -37 57 0 8 -9 10 -24 6 -14 -3 -28 -2 -31 4 -3 5 0 10 7 10 10
0 9 3 -2 11 -12 9 -11 10 8 6 12 -3 20 -2 17 3 -3 4 2 10 10 14 9 3 26 -9 44
-31 32 -38 33 -39 221 -47 20 -1 25 5 31 32 10 48 18 51 44 17 13 -16 27 -27
30 -24 3 3 -4 14 -15 24 -11 10 -20 22 -20 27 0 15 29 8 39 -9 8 -15 9 -13 8
7 0 14 3 33 7 42 6 14 1 21 -20 30 l-29 12 44 4 c50 4 59 -1 41 -23 -16 -19
-3 -20 16 -1 10 11 11 17 3 22 -9 5 -8 10 2 18 26 20 48 72 42 96 -4 16 -3 21
5 16 7 -4 12 -3 12 2 0 16 -44 30 -67 21 -62 -23 -6 53 72 98 57 32 64 29 24
-14z m-711 -83 c-2 -7 -10 1 -17 16 -12 27 -11 28 4 12 10 -9 16 -21 13 -28z
m-1195 15 c-3 -9 -8 -14 -10 -11 -3 3 -2 9 2 15 9 16 15 13 8 -4z m-373 -95
c0 -5 -4 -10 -10 -10 -5 0 -10 5 -10 10 0 6 5 10 10 10 6 0 10 -4 10 -10z
m-224 -63 c17 6 17 5 5 -10 -16 -20 -20 -21 -45 -2 -10 8 -15 19 -10 26 5 9
10 8 19 -5 8 -11 19 -14 31 -9z m1937 -4 c-7 -2 -19 -2 -25 0 -7 3 -2 5 12 5
14 0 19 -2 13 -5z m367 -13 c0 -5 -5 -10 -11 -10 -5 0 -7 5 -4 10 3 6 8 10 11
10 2 0 4 -4 4 -10z m40 -50 c0 -5 -2 -10 -4 -10 -3 0 -8 5 -11 10 -3 6 -1 10
4 10 6 0 11 -4 11 -10z m-635 -24 c19 -8 35 -20 35 -25 0 -6 5 -11 10 -11 18
0 80 -45 80 -57 0 -7 -2 -13 -3 -13 -12 0 -67 33 -67 40 0 4 -8 11 -17 14 -13
5 -11 0 6 -18 14 -15 31 -26 38 -26 8 0 11 -4 8 -10 -3 -5 -19 -8 -35 -6 -30
3 -65 25 -55 34 7 7 -15 32 -28 32 -6 0 -2 -7 9 -15 10 -8 14 -15 8 -15 -6 0
-21 12 -35 27 -13 15 -16 21 -7 14 16 -12 18 -10 14 18 -4 36 -6 35 39 17z
m115 -18 c0 -5 -7 -8 -15 -4 -8 3 -15 1 -15 -4 0 -17 38 -11 50 8 10 15 10 14
5 -4 -4 -16 1 -28 20 -42 18 -14 21 -22 13 -26 -7 -3 -4 -4 7 -3 15 2 19 9 17
26 -3 16 1 22 10 18 7 -2 12 -9 11 -14 -1 -6 9 -9 22 -7 41 4 28 -13 -20 -26
-33 -9 -52 -10 -68 -2 -12 6 -16 11 -9 11 6 1 12 6 12 12 0 5 -4 7 -10 4 -5
-3 -18 -1 -27 5 -15 9 -14 10 6 4 16 -4 21 -3 17 5 -4 6 -18 11 -31 11 -29 0
-41 16 -25 35 13 15 30 11 30 -7z m1374 -13 c-4 -8 -11 -15 -16 -15 -6 0 -5 6
2 15 7 8 14 15 16 15 2 0 1 -7 -2 -15z m-1484 -91 c0 -10 -36 16 -60 42 -23
26 -22 25 18 -5 23 -18 42 -35 42 -37z m209 -17 c-2 -1 -14 -11 -26 -21 -13
-11 -23 -16 -23 -13 0 10 31 37 42 37 6 0 9 -1 7 -3z m-242 -48 c-22 -11 -41
-18 -44 -15 -4 3 9 12 28 20 50 22 60 18 16 -5z m-1898 -11 c-1 -1 3 -14 10
-27 8 -14 9 -21 2 -17 -6 4 -18 -8 -28 -28 -13 -28 -19 -33 -30 -25 -7 6 -13
18 -13 27 0 17 50 86 57 78 2 -2 4 -6 2 -8z m3396 2 c3 -5 1 -10 -4 -10 -6 0
-11 5 -11 10 0 6 2 10 4 10 3 0 8 -4 11 -10z m-3094 -122 c6 -11 4 -18 -6 -22
-12 -4 -15 3 -14 32 0 20 3 30 6 22 3 -8 10 -22 14 -32z m1551 19 c-8 -10 -3
-22 23 -50 18 -20 29 -39 24 -42 -5 -4 -9 -1 -9 5 0 6 -5 8 -10 5 -14 -8 -76
31 -85 53 -3 9 -3 18 2 19 4 2 19 9 33 16 29 16 38 13 22 -6z m63 13 c-3 -5
-14 -10 -23 -10 -15 0 -15 2 -2 10 20 13 33 13 25 0z m-1328 -24 c-3 -8 1 -13
11 -12 9 0 16 -5 15 -11 -2 -7 2 -13 7 -13 23 0 8 -19 -20 -25 -34 -8 -64 10
-56 32 7 17 -2 17 -20 -1 -12 -13 -12 -16 2 -24 18 -10 56 -97 46 -106 -14
-15 -54 -5 -59 14 -3 11 -11 20 -18 20 -8 0 -20 3 -29 6 -12 5 -16 -1 -16 -23
0 -37 -4 -41 -35 -35 -27 5 -35 22 -10 22 8 0 15 4 15 9 0 5 -11 8 -25 6 -28
-3 -31 4 -12 24 10 11 9 13 -3 9 -8 -3 -23 -1 -32 4 -14 7 -20 1 -31 -39 -15
-53 -21 -49 -31 20 -7 44 -6 48 19 57 34 13 35 13 35 -5 0 -20 39 -19 61 1 10
9 16 21 13 28 -4 10 14 18 116 50 33 10 62 6 57 -8z m1178 -67 c15 -16 13 -17
-24 -21 -45 -4 -49 3 -29 47 11 25 13 26 25 8 6 -10 19 -25 28 -34z m1900 22
c6 -11 -15 -61 -27 -61 -9 0 -11 31 -2 54 7 18 20 21 29 7z m-1695 -21 c0 -5
-5 -10 -11 -10 -5 0 -7 5 -4 10 3 6 8 10 11 10 2 0 4 -4 4 -10z m-1130 -10 c8
-5 12 -12 8 -15 -8 -8 -58 5 -58 16 0 12 31 11 50 -1z m1295 -35 c35 -59 28
-80 -13 -38 -20 19 -32 42 -32 57 0 38 16 32 45 -19z m-1784 -28 c-10 -9 -11
-8 -5 6 3 10 9 15 12 12 3 -3 0 -11 -7 -18z m229 -47 c0 -5 -5 -10 -11 -10 -5
0 -7 5 -4 10 3 6 8 10 11 10 2 0 4 -4 4 -10z m950 -15 c0 -7 12 -23 27 -34 14
-12 45 -39 69 -61 l42 -39 -16 -50 c-9 -27 -24 -54 -33 -59 -9 -6 -63 -12
-120 -15 -57 -3 -92 -3 -77 -1 20 4 28 13 33 35 8 34 13 36 31 12 7 -10 16
-14 20 -10 5 4 3 16 -4 25 -20 27 -25 42 -18 50 4 3 11 0 16 -8 8 -12 10 -10
10 8 0 33 14 20 30 -27 7 -23 17 -41 22 -41 12 0 10 24 -4 39 -11 11 -8 12 15
7 15 -4 32 -4 37 -1 9 5 -59 113 -85 135 -17 14 -21 65 -5 55 6 -3 10 -12 10
-20z m-231 -11 c34 -43 23 -76 -11 -36 -20 22 -32 62 -19 62 5 0 19 -12 30
-26z m151 2 c0 -3 -4 -8 -10 -11 -5 -3 -10 -1 -10 4 0 6 5 11 10 11 6 0 10 -2
10 -4z m24 -33 c8 -21 -6 -35 -27 -27 -20 7 -22 30 -4 37 21 9 25 8 31 -10z
m-1018 -18 c4 -8 12 -15 19 -15 7 0 15 7 19 15 6 17 56 21 56 5 0 -5 15 -10
34 -10 47 0 66 -9 66 -31 0 -20 34 -27 45 -9 10 15 35 12 35 -5 0 -11 12 -15
43 -16 36 0 39 -2 19 -10 -13 -5 -30 -16 -39 -25 -13 -12 -17 -13 -24 -2 -10
15 -12 7 -3 -15 4 -12 13 -13 46 -6 29 7 47 6 68 -5 16 -7 31 -11 34 -8 15 14
68 11 85 -6 19 -18 35 -51 33 -65 -1 -4 9 -5 23 -1 14 3 25 2 26 -2 0 -5 2
-19 5 -32 2 -13 0 -21 -5 -18 -20 13 -67 29 -76 27 -5 -2 -29 -5 -51 -8 -35
-3 -42 -1 -47 16 -4 18 -13 21 -54 21 -57 0 -78 -13 -164 -99 -35 -35 -74 -70
-85 -78 -12 -8 -34 -32 -50 -54 -23 -33 -25 -43 -16 -62 6 -12 14 -37 17 -54
6 -30 4 -33 -17 -34 -13 0 -45 -7 -73 -14 l-50 -14 50 5 c28 3 63 7 78 8 15 2
27 0 27 -3 0 -4 6 -15 13 -26 12 -16 13 -11 9 39 -3 37 -1 56 7 56 6 0 11 13
11 29 0 33 25 98 32 85 3 -5 3 -18 1 -29 -8 -33 -23 -168 -20 -171 1 -2 16 8
32 23 38 33 83 52 107 45 32 -8 13 -27 -31 -30 -35 -3 -50 -11 -89 -51 -26
-27 -58 -61 -70 -77 l-24 -29 22 38 c12 21 21 40 19 42 -2 1 -40 -1 -84 -5
-139 -15 -145 -14 -145 19 0 35 -15 48 -35 31 -12 -10 -25 -2 -69 43 -53 53
-75 95 -48 89 8 -1 11 2 7 8 -3 5 -25 10 -48 10 -30 0 -38 3 -27 10 16 10 15
12 -15 28 -17 10 -17 11 -3 12 12 0 18 12 23 48 13 88 20 106 46 113 21 6 21
7 3 8 -20 1 -20 2 -5 63 11 46 16 57 22 42 4 -10 8 -33 8 -51 1 -28 21 -61 21
-33 0 12 60 74 60 62 1 -18 30 35 30 55 0 13 6 23 14 23 18 0 29 31 20 56 -7
19 -6 19 8 0 18 -23 50 -15 72 19 18 28 44 33 52 10z m252 -6 c-2 -6 -8 -10
-13 -10 -5 0 -11 4 -13 10 -2 6 4 11 13 11 9 0 15 -5 13 -11z m2865 -91 l-18
-33 -3 38 c-2 25 3 48 15 65 l18 27 3 -32 c2 -17 -5 -47 -15 -65z m-2118 62
c3 -5 1 -10 -4 -10 -6 0 -11 5 -11 10 0 6 2 10 4 10 3 0 8 -4 11 -10z m10 -52
c-9 -44 -25 -59 -25 -25 0 15 5 27 10 27 6 0 10 7 10 15 0 8 3 15 6 15 3 0 3
-15 -1 -32z m125 -10 c0 -6 -6 -5 -15 2 -8 7 -15 14 -15 16 0 2 7 1 15 -2 8
-4 15 -11 15 -16z m718 -36 c13 -20 13 -22 -6 -22 -18 0 -32 18 -32 42 0 15
22 4 38 -20z m1744 -4 c-9 -9 -12 -7 -12 12 0 19 3 21 12 12 9 -9 9 -15 0 -24z
m-2644 -7 c3 -8 -1 -12 -9 -9 -7 2 -15 10 -17 17 -3 8 1 12 9 9 7 -2 15 -10
17 -17z m-1355 -44 c0 -64 -4 -67 -93 -67 l-80 0 0 44 c0 25 5 48 12 52 18 11
142 21 152 12 5 -4 9 -23 9 -41z m1377 13 c0 -5 -5 -10 -11 -10 -5 0 -7 5 -4
10 3 6 8 10 11 10 2 0 4 -4 4 -10z m622 -2 c-8 -8 -6 -18 10 -40 11 -16 19
-30 17 -32 -9 -7 -69 15 -69 25 0 15 33 58 45 59 5 0 4 -5 -3 -12z m-642 -94
c11 -37 20 -85 20 -108 l0 -41 -25 30 c-13 17 -24 36 -25 43 0 7 -5 10 -10 7
-6 -4 -19 -3 -28 1 -9 4 -42 9 -72 10 -30 1 -63 3 -73 4 -16 1 -42 -24 -69
-64 -5 -8 -11 -7 -20 2 -9 9 -9 12 0 12 19 0 14 35 -9 64 -20 26 -14 37 9 14
9 -9 12 -9 12 0 0 7 13 12 29 12 17 0 33 5 36 10 4 6 -19 10 -60 10 -49 0 -66
3 -63 13 3 6 22 13 44 15 21 2 44 8 50 13 6 5 19 7 28 3 9 -3 16 -2 16 3 0 14
70 15 88 1 11 -9 13 -9 9 -1 -5 8 5 13 35 15 24 2 46 2 50 0 4 -1 17 -32 28
-68z m-1383 -16 c-3 -13 -9 -44 -12 -70 -8 -51 -18 -58 -87 -58 -43 0 -51 16
-46 91 l3 44 65 6 c36 3 69 6 74 7 4 1 6 -8 3 -20z m1063 -69 c0 -5 -13 0 -30
13 -16 12 -30 26 -30 31 0 4 14 -1 30 -13 17 -12 30 -26 30 -31z m1980 27 c0
-10 16 -17 45 -22 25 -3 48 -10 51 -15 9 -16 -84 -10 -121 8 -43 21 -46 43 -5
43 19 0 30 -5 30 -14z m-714 -97 c3 -14 -1 -41 -10 -60 l-15 -34 6 59 c4 43 3
57 -6 52 -13 -8 -15 41 -4 71 6 14 9 9 16 -22 4 -22 10 -51 13 -66z m-2543
-19 c7 -1 -3 -7 -22 -15 -40 -18 -79 -20 -43 -3 12 6 22 15 22 21 0 5 7 6 16
3 9 -3 21 -6 27 -6z m-75 -60 c-7 -10 -13 -18 -13 -17 0 1 -7 10 -14 20 -12
15 -11 17 13 17 23 0 25 -2 14 -20z m1342 -27 c-5 -16 -15 -48 -23 -73 -15
-44 -15 -44 -13 -10 2 39 26 110 37 110 4 0 4 -12 -1 -27z m3164 -67 c-3 -21
-9 -35 -11 -32 -3 3 -2 21 1 42 4 20 10 34 12 31 3 -3 2 -21 -2 -41z m-2034
-41 c0 -8 -6 -15 -12 -15 -9 0 -8 -4 2 -11 12 -8 10 -9 -9 -7 -27 3 -42 28
-17 28 9 0 16 5 16 10 0 6 5 10 10 10 6 0 10 -7 10 -15z m-283 -21 c2 -7 -8
-9 -27 -6 -16 2 -30 9 -30 14 0 13 53 6 57 -8z m-2191 -38 c20 -20 17 -36 -6
-36 -15 0 -20 7 -20 25 0 29 6 31 26 11z m1320 -108 c-1 -13 -10 -24 -19 -26
-22 -4 -21 3 0 28 22 25 24 25 19 -2z m-1281 0 l26 -12 -32 -13 c-39 -16 -46
-16 -30 0 10 10 3 14 -31 24 l-43 11 42 1 c23 1 54 -4 68 -11z m1601 -33 c3
-17 1 -24 -6 -20 -5 3 -10 18 -10 32 0 32 9 25 16 -12z m-1668 0 c-2 -5 -11
-11 -21 -12 -15 -3 -16 -1 -5 12 14 15 32 16 26 0z m-15 -43 l32 -10 -42 -1
c-35 -1 -43 2 -43 17 0 24 14 38 18 19 2 -8 17 -19 35 -25z m114 -8 c-3 -3
-12 -4 -19 -1 -8 3 -5 6 6 6 11 1 17 -2 13 -5z m-73 -39 c-4 -8 -16 -15 -28
-15 -20 1 -20 1 4 15 31 18 30 18 24 0z m1630 -29 c-9 -14 -21 -26 -26 -26 -6
0 -4 10 4 23 8 12 18 29 23 37 6 9 10 10 12 3 3 -7 -3 -23 -13 -37z m-1692 12
c-9 -9 -15 -9 -24 0 -9 9 -7 12 12 12 19 0 21 -3 12 -12z m828 4 c0 -16 -28
-47 -36 -39 -4 4 -2 7 4 7 7 0 12 9 12 20 0 11 5 20 10 20 6 0 10 -4 10 -8z
m530 -7 c-21 -26 -6 -41 18 -17 12 12 24 22 25 22 2 0 5 -20 5 -44 2 -29 -3
-48 -11 -53 -15 -9 -37 -46 -37 -62 0 -20 38 -11 57 12 10 13 25 26 33 30 8 4
26 14 40 22 56 32 38 -47 -29 -125 -30 -34 -30 -34 -31 -10 0 30 -17 15 -22
-20 -3 -27 -39 -40 -61 -22 -20 16 -60 16 -97 0 -23 -10 -43 -12 -60 -7 -27 9
-48 8 -66 -4 -7 -4 -19 4 -28 17 -15 24 -15 25 14 40 17 8 30 10 30 5 0 -12
37 -11 61 2 17 9 21 7 26 -10 7 -29 47 -27 66 2 16 24 47 120 47 144 0 7 -9
13 -20 13 -11 0 -20 -3 -20 -7 0 -5 -11 -13 -25 -20 -14 -6 -25 -8 -25 -3 0 4
6 10 13 13 8 3 21 20 30 39 10 20 17 26 17 16 0 -10 7 -18 16 -18 9 0 14 6 11
13 -6 16 11 47 25 47 7 0 6 -5 -2 -15z m-618 -6 c3 -9 10 -9 28 0 l25 12 -24
-19 -24 -19 24 -6 c13 -4 34 -4 46 -1 24 6 32 -10 11 -20 -7 -3 -3 -3 10 0 26
6 30 -11 5 -25 -16 -9 -16 -12 -3 -21 13 -8 13 -10 -2 -10 -10 0 -18 7 -18 15
0 8 -4 15 -9 15 -6 0 -9 -12 -8 -27 1 -20 -3 -28 -15 -28 -9 0 -20 -4 -24 -8
-14 -13 -54 -8 -54 8 0 8 -7 15 -15 15 -9 0 -15 6 -14 13 4 33 -1 39 -31 34
-16 -4 -30 -3 -30 2 0 8 24 18 64 27 22 5 46 23 46 35 0 4 -10 10 -22 12 -20
4 -20 4 4 6 14 0 28 -4 30 -10z m-137 -69 c-3 -5 -15 -10 -26 -10 -10 0 -19 5
-19 10 0 6 12 10 26 10 14 0 23 -4 19 -10z m975 -79 c0 -6 -4 -13 -10 -16 -5
-3 -10 1 -10 9 0 9 5 16 10 16 6 0 10 -4 10 -9z m-280 -25 c0 -2 -7 -9 -15
-16 -13 -11 -14 -10 -9 4 5 14 24 23 24 12z m231 -41 c1 -17 -18 -17 -25 0 -4
11 -1 15 10 13 8 -2 15 -7 15 -13z"/>
<path d="M2480 1786 c0 -3 9 -10 20 -16 11 -6 20 -8 20 -6 0 3 -9 10 -20 16
-11 6 -20 8 -20 6z"/>
<path d="M3368 2083 c7 -3 16 -2 19 1 4 3 -2 6 -13 5 -11 0 -14 -3 -6 -6z"/>
<path d="M4075 1670 c3 -5 8 -10 11 -10 2 0 4 5 4 10 0 6 -5 10 -11 10 -5 0
-7 -4 -4 -10z"/>
<path d="M3681 1024 c0 -11 3 -14 6 -6 3 7 2 16 -1 19 -3 4 -6 -2 -5 -13z"/>
<path d="M2614 1785 c11 -8 24 -15 30 -15 5 0 1 7 -10 15 -10 8 -23 14 -29 14
-5 0 -1 -6 9 -14z"/>
<path d="M2660 1726 c0 -2 7 -7 16 -10 8 -3 12 -2 9 4 -6 10 -25 14 -25 6z"/>
<path d="M1271 1494 c0 -11 3 -14 6 -6 3 7 2 16 -1 19 -3 4 -6 -2 -5 -13z"/>
<path d="M1118 1215 c-3 -16 -1 -25 7 -25 8 0 10 9 7 25 -2 14 -6 25 -7 25 -1
0 -5 -11 -7 -25z"/>
<path d="M2033 983 c9 -2 23 -2 30 0 6 3 -1 5 -18 5 -16 0 -22 -2 -12 -5z"/>
<path d="M717 1929 c6 -22 23 -26 23 -5 0 8 -6 16 -14 19 -10 4 -12 0 -9 -14z"/>
<path d="M421 1801 c-11 -7 -12 -15 -4 -33 10 -23 10 -23 27 10 17 33 8 42
-23 23z"/>
<path d="M75 1500 c-3 -5 -1 -10 4 -10 6 0 11 5 11 10 0 6 -2 10 -4 10 -3 0
-8 -4 -11 -10z"/>
<path d="M0 1331 c0 -12 5 -21 10 -21 6 0 10 6 10 14 0 8 -4 18 -10 21 -5 3
-10 -3 -10 -14z"/>
<path d="M30 1316 c0 -16 -5 -26 -15 -26 -13 0 -15 -23 -14 -152 1 -84 4 -141
6 -125 2 15 10 27 16 28 7 0 25 2 40 3 16 1 31 7 35 13 4 5 16 13 27 17 26 9
66 72 59 91 -4 9 3 23 17 33 31 26 18 43 -23 31 -32 -9 -60 2 -40 15 7 4 1 24
-15 51 -26 48 -30 50 -53 35 -9 -5 -19 -5 -27 2 -10 8 -13 4 -13 -16z"/>
<path d="M501 1044 c0 -11 3 -14 6 -6 3 7 2 16 -1 19 -3 4 -6 -2 -5 -13z"/>
<path d="M500 900 c0 -5 5 -10 10 -10 6 0 10 5 10 10 0 6 -4 10 -10 10 -5 0
-10 -4 -10 -10z"/>
<path d="M2145 175 c-27 -47 -28 -68 -1 -46 16 14 41 79 33 87 -2 3 -17 -16
-32 -41z"/>
<path d="M2100 79 c0 -11 5 -17 10 -14 6 3 10 13 10 21 0 8 -4 14 -10 14 -5 0
-10 -9 -10 -21z"/>
<path d="M1200 60 c0 -5 -9 -10 -20 -10 -11 0 -20 -5 -20 -10 0 -19 25 -21 61
-6 19 9 26 15 17 16 -10 0 -18 5 -18 10 0 6 -4 10 -10 10 -5 0 -10 -4 -10 -10z"/>
<path d="M2062 44 c-25 -17 -29 -44 -7 -44 8 0 15 7 15 16 0 8 4 13 9 9 13 -7
21 8 12 23 -5 9 -13 8 -29 -4z"/>
<path d="M1011 11 c-10 -6 1 -9 32 -9 26 0 45 4 41 9 -7 12 -55 11 -73 0z"/>
</g>
</svg>
