<?xml version="1.0" standalone="no"?>
<!DOCTYPE svg PUBLIC "-//W3C//DTD SVG 20010904//EN"
 "http://www.w3.org/TR/2001/REC-SVG-20010904/DTD/svg10.dtd">
<svg version="1.0" xmlns="http://www.w3.org/2000/svg"
 width="500.000000pt" height="333.000000pt" viewBox="0 0 500.000000 333.000000"
 preserveAspectRatio="xMidYMid meet">

<g transform="translate(0.000000,333.000000) scale(0.100000,-0.100000)"
fill="#000000" stroke="none">
<path d="M0 1665 l0 -1665 2500 0 2500 0 0 1665 0 1665 -2500 0 -2500 0 0
-1665z m1365 1635 c8 -13 -15 -13 -35 0 -12 8 -11 10 7 10 12 0 25 -4 28 -10z
m562 -166 c-3 -3 -12 -4 -19 -1 -8 3 -5 6 6 6 11 1 17 -2 13 -5z m2046 -211
c-7 -2 -19 -2 -25 0 -7 3 -2 5 12 5 14 0 19 -2 13 -5z m255 -575 c-2 -6 -10
-14 -16 -16 -7 -2 -10 2 -6 12 7 18 28 22 22 4z m-1828 -88 c0 -5 -5 -10 -11
-10 -5 0 -7 5 -4 10 3 6 8 10 11 10 2 0 4 -4 4 -10z m35 0 c-3 -5 -10 -10 -16
-10 -5 0 -9 5 -9 10 0 6 7 10 16 10 8 0 12 -4 9 -10z m-792 -167 c-7 -2 -19
-2 -25 0 -7 3 -2 5 12 5 14 0 19 -2 13 -5z m357 -43 c13 -8 13 -10 -2 -10 -9
0 -20 5 -23 10 -8 13 5 13 25 0z m-90 -35 c0 -8 -4 -15 -10 -15 -5 0 -10 7
-10 15 0 8 5 15 10 15 6 0 10 -7 10 -15z m-30 -5 c0 -5 -12 -10 -27 -9 l-28 1
25 8 c14 4 26 8 28 9 1 1 2 -3 2 -9z m2650 -210 c0 -5 -2 -10 -4 -10 -3 0 -8
5 -11 10 -3 6 -1 10 4 10 6 0 11 -4 11 -10z m-4420 -120 c0 -5 -4 -10 -10 -10
-5 0 -10 5 -10 10 0 6 5 10 10 10 6 0 10 -4 10 -10z m4482 -187 c18 -16 24
-33 11 -33 -10 1 -46 50 -37 50 4 0 16 -7 26 -17z m-515 -59 c-3 -3 -12 -4
-19 -1 -8 3 -5 6 6 6 11 1 17 -2 13 -5z m289 -19 c-3 -9 0 -15 8 -15 8 0 17 6
19 13 4 8 6 6 6 -4 1 -19 -57 -72 -83 -76 -11 -2 -25 -8 -33 -14 -10 -9 -13
-6 -13 14 0 18 10 31 38 47 20 12 41 28 45 36 11 19 21 18 13 -1z m-306 -5 c0
-5 -4 -10 -9 -10 -6 0 -13 5 -16 10 -3 6 1 10 9 10 9 0 16 -4 16 -10z m-23
-52 c41 -21 50 -37 25 -46 -7 -2 -10 2 -6 12 5 12 -1 15 -29 13 -25 -2 -34 0
-30 10 3 7 1 13 -5 13 -6 0 -18 3 -28 7 -10 3 -15 2 -11 -3 3 -5 -6 -14 -19
-21 -19 -9 -24 -8 -24 3 0 8 7 14 16 14 11 0 14 5 10 16 -5 14 -1 16 25 10 18
-3 52 -16 76 -28z m-57 -24 c0 -8 -5 -12 -10 -9 -6 4 -8 11 -5 16 9 14 15 11
15 -7z m-1400 -14 c0 -6 6 -10 13 -9 36 7 141 -36 143 -59 1 -7 2 -17 3 -24 0
-6 4 -9 7 -5 8 7 57 -51 72 -86 6 -15 20 -30 29 -33 10 -4 32 -12 50 -20 17
-8 36 -14 42 -14 6 0 11 -4 11 -10 0 -5 7 -10 15 -10 18 0 20 -20 3 -20 -7 -1
1 -7 17 -16 29 -14 29 -14 -27 -9 -47 4 -58 2 -58 -10 0 -21 -17 -19 -24 3 -2
9 -2 -5 1 -33 3 -27 6 -52 6 -55 0 -3 -3 -17 -7 -32 l-8 -28 -41 35 c-29 25
-43 32 -48 23 -4 -7 -4 -17 0 -23 5 -5 11 -23 15 -38 4 -15 10 -25 15 -22 5 2
23 2 40 -1 21 -5 31 -12 31 -25 0 -23 -13 -24 -33 -4 -13 12 -16 12 -20 0 -3
-7 -1 -15 5 -17 8 -3 8 -10 -1 -25 -14 -27 -15 -55 -1 -33 7 11 8 5 3 -19 -4
-21 -2 -32 3 -28 6 3 8 -8 6 -28 -3 -26 1 -36 17 -44 16 -9 21 -21 21 -56 0
-24 5 -54 11 -67 9 -21 77 -58 106 -58 7 0 14 -4 17 -8 7 -12 -74 2 -104 18
-22 12 -24 12 -12 -2 7 -9 35 -22 62 -28 47 -11 48 -13 38 -36 -13 -28 -18
-29 -44 -9 -18 14 -17 15 11 10 l30 -6 -25 14 c-22 14 -26 13 -42 -5 -20 -23
-51 -18 -42 7 3 8 1 15 -5 15 -6 0 -11 9 -11 19 0 17 -18 31 -41 31 -6 0 -7
-10 -4 -22 5 -17 -6 -10 -39 25 -25 27 -46 55 -46 62 0 7 -6 15 -14 18 -8 3
-17 19 -21 36 -4 17 -10 31 -15 31 -4 0 -10 13 -13 29 -3 16 -12 35 -20 42 -7
8 -20 29 -28 47 -7 17 -17 32 -21 32 -5 0 -8 9 -8 19 0 11 -7 26 -15 35 -8 8
-15 24 -15 35 0 11 -5 23 -10 26 -6 4 -8 11 -4 16 10 18 -18 39 -51 39 -27 0
-34 5 -39 26 -8 31 27 109 55 125 17 9 18 12 5 37 -15 30 -29 111 -27 157 1
19 12 38 28 52 28 24 53 30 53 13z m1535 -1 c11 -16 1 -19 -13 -3 -7 8 -8 14
-3 14 5 0 13 -5 16 -11z m-185 -34 c0 -8 -9 -15 -20 -15 -11 0 -20 7 -20 15 0
8 9 15 20 15 11 0 20 -7 20 -15z m632 -37 c-9 -9 -12 -7 -12 12 0 19 3 21 12
12 9 -9 9 -15 0 -24z m-357 12 c3 -6 -1 -7 -9 -4 -18 7 -21 14 -7 14 6 0 13
-4 16 -10z m71 -67 c-7 -7 -26 7 -26 19 0 6 6 6 15 -2 9 -7 13 -15 11 -17z
m31 -19 c-3 -3 -12 -4 -19 -1 -8 3 -5 6 6 6 11 1 17 -2 13 -5z m23 -34 c0 -5
-4 -10 -10 -10 -5 0 -10 5 -10 10 0 6 5 10 10 10 6 0 10 -4 10 -10z m19 -66
c2 -2 -12 -4 -32 -4 -20 0 -39 5 -42 11 -5 7 5 8 32 3 21 -4 40 -8 42 -10z
m-244 -24 c-3 -5 -11 -10 -16 -10 -6 0 -7 5 -4 10 3 6 11 10 16 10 6 0 7 -4 4
-10z m878 -274 c3 -8 1 -17 -6 -19 -17 -6 -49 12 -42 24 9 14 42 11 48 -5z
m-2406 -18 c-3 -8 -6 -5 -6 6 -1 11 2 17 5 13 3 -3 4 -12 1 -19z m1633 12 c10
-6 43 -12 72 -14 82 -5 218 -28 213 -36 -2 -3 -28 -3 -57 0 -29 4 -59 5 -65 3
-7 -3 -13 0 -13 6 0 8 -18 11 -52 10 -48 -2 -128 21 -128 35 0 9 9 7 30 -4z
m-30 -40 c12 -8 9 -10 -13 -10 -16 0 -26 4 -22 10 8 12 16 12 35 0z m672 -24
c24 -8 52 -17 63 -20 11 -3 4 -3 -15 0 -19 3 -54 8 -77 11 -24 3 -43 9 -43 14
0 13 23 11 72 -5z m-532 -6 c0 -5 -2 -10 -4 -10 -3 0 -8 5 -11 10 -3 6 -1 10
4 10 6 0 11 -4 11 -10z m105 -30 c8 -13 -15 -13 -35 0 -12 8 -11 10 7 10 12 0
25 -4 28 -10z m-742 -60 c6 0 7 -3 4 -7 -4 -3 -2 -13 5 -20 9 -11 9 -16 -1
-22 -10 -7 -10 -13 -2 -29 15 -27 14 -32 -4 -32 -8 0 -15 7 -15 15 0 10 -11
15 -35 15 -35 0 -51 19 -17 21 10 0 12 3 4 6 -6 2 -10 9 -6 14 3 5 1 9 -4 9
-20 0 -20 40 0 66 l21 26 19 -31 c11 -17 25 -31 31 -31z m812 50 c-3 -5 -10
-10 -16 -10 -5 0 -9 5 -9 10 0 6 7 10 16 10 8 0 12 -4 9 -10z m-557 -25 c7
-14 12 -47 11 -73 -1 -38 -2 -42 -9 -22 -5 17 -8 19 -9 8 -1 -20 -18 -23 -57
-8 -31 12 -68 5 -46 -9 8 -4 15 -20 16 -34 3 -23 1 -24 -19 -17 -40 15 -48
-20 -15 -62 17 -23 31 -26 73 -19 15 2 6 19 -14 24 -27 7 -22 41 7 45 12 2 35
-9 53 -23 l31 -27 -42 -50 c-22 -27 -52 -57 -65 -65 -25 -17 -93 -27 -93 -14
0 5 -11 6 -24 4 -18 -4 -28 1 -39 19 -16 25 -29 131 -15 122 8 -5 12 11 9 30
-3 13 20 26 45 26 20 0 21 -5 20 -60 0 -33 2 -60 5 -60 9 0 19 55 19 106 0 35
4 44 18 44 14 0 15 2 2 10 -13 9 -13 11 0 20 13 9 13 10 0 10 -10 0 -6 9 13
25 25 22 46 30 70 26 4 0 6 2 5 7 -3 14 14 42 26 42 7 0 18 -11 24 -25z m372
15 c0 -5 -4 -10 -10 -10 -5 0 -10 5 -10 10 0 6 5 10 10 10 6 0 10 -4 10 -10z
m-1446 -16 c3 -8 2 -12 -4 -9 -6 3 -10 10 -10 16 0 14 7 11 14 -7z m1526 12
c0 -9 -30 -14 -35 -6 -4 6 3 10 14 10 12 0 21 -2 21 -4z m-95 -26 c3 -5 -1
-10 -9 -10 -8 0 -18 5 -21 10 -3 6 1 10 9 10 8 0 18 -4 21 -10z m-1646 -81
c-16 -10 -23 -4 -14 10 3 6 11 8 17 5 6 -4 5 -9 -3 -15z m285 -208 c4 -5 0
-12 -6 -14 -7 -3 -2 -6 10 -6 14 -1 22 -6 20 -13 -8 -23 -26 -19 -48 12 -21
30 -21 30 -1 30 11 0 22 -4 25 -9z m-2491 -28 c-7 -2 -19 -2 -25 0 -7 3 -2 5
12 5 14 0 19 -2 13 -5z m2572 -63 c3 -5 -1 -10 -9 -10 -9 0 -16 5 -16 10 0 6
4 10 9 10 6 0 13 -4 16 -10z"/>
<path d="M4300 1355 c-7 -9 -8 -15 -2 -15 5 0 12 7 16 15 3 8 4 15 2 15 -2 0
-9 -7 -16 -15z"/>
<path d="M2750 1065 c7 -8 18 -15 25 -15 8 0 15 -6 18 -12 4 -10 7 -10 17 -1
11 10 10 13 -6 18 -10 4 -27 11 -36 16 -26 13 -32 11 -18 -6z"/>
<path d="M2554 1059 c-3 -6 -2 -15 4 -21 7 -7 14 -3 21 11 10 17 9 21 -3 21
-8 0 -18 -5 -22 -11z"/>
<path d="M2710 1061 c0 -7 -7 -11 -15 -8 -8 4 -17 1 -21 -5 -4 -7 -3 -8 4 -4
19 11 14 -5 -5 -20 -17 -13 -17 -13 -1 -14 19 0 55 46 44 57 -3 3 -6 1 -6 -6z"/>
<path d="M2830 1062 c0 -5 9 -17 20 -27 19 -18 20 -17 20 2 0 12 -7 24 -16 27
-21 8 -24 8 -24 -2z"/>
<path d="M2755 980 c3 -5 11 -10 16 -10 6 0 26 -12 45 -26 19 -15 34 -22 34
-16 0 15 -63 62 -84 62 -9 0 -14 -4 -11 -10z"/>
<path d="M2766 653 c-11 -11 -6 -23 9 -23 8 0 15 4 15 9 0 13 -16 22 -24 14z"/>
<path d="M2755 571 c-8 -20 -2 -22 33 -15 18 4 32 12 32 19 0 17 -58 14 -65
-4z"/>
<path d="M2830 549 c0 -5 5 -7 10 -4 6 3 10 8 10 11 0 2 -4 4 -10 4 -5 0 -10
-5 -10 -11z"/>
</g>
</svg>
